<svg id="Blocks" xmlns="http://www.w3.org/2000/svg" xmlns:xlink="http://www.w3.org/1999/xlink" width="96" height="96" viewBox="0 0 96 96"><defs><linearGradient id="linear-gradient" x1="1.65" y1="47.91" x2="94.5" y2="47.91" gradientUnits="userSpaceOnUse"><stop offset="0" stop-color="#3ac3e8"/><stop offset="1" stop-color="#3ac3e8"/></linearGradient><linearGradient id="linear-gradient-2" x1="3.44" y1="23.07" x2="27.34" y2="23.07" xlink:href="#linear-gradient"/><linearGradient id="linear-gradient-3" x1="9.51" y1="34.97" x2="9.51" y2="76.43" gradientUnits="userSpaceOnUse"><stop offset="0" stop-color="#3ac3e8"/><stop offset="1" stop-color="#33abd7"/></linearGradient><linearGradient id="linear-gradient-4" x1="11.68" y1="83.39" x2="45.31" y2="83.39" gradientUnits="userSpaceOnUse"><stop offset="0" stop-color="#33abd7"/><stop offset="1" stop-color="#2e9acb"/></linearGradient><linearGradient id="linear-gradient-5" x1="44.78" y1="87.76" x2="72.97" y2="87.76" gradientUnits="userSpaceOnUse"><stop offset="0" stop-color="#2e9acb"/><stop offset="1" stop-color="#2987be"/></linearGradient><linearGradient id="linear-gradient-6" x1="68.94" y1="72.03" x2="93.35" y2="72.03" gradientUnits="userSpaceOnUse"><stop offset="0" stop-color="#2987be"/><stop offset="1" stop-color="#2374b1"/></linearGradient><linearGradient id="linear-gradient-7" x1="90" y1="58.18" x2="86.84" y2="22" gradientUnits="userSpaceOnUse"><stop offset="0" stop-color="#2374b1"/><stop offset="1" stop-color="#1e61a3"/></linearGradient><linearGradient id="linear-gradient-8" x1="77.55" y1="28.59" x2="60" y2="-1.81" gradientUnits="userSpaceOnUse"><stop offset="0" stop-color="#1e61a3"/><stop offset="1" stop-color="#16438f"/></linearGradient></defs><title>circular-progress-indicator_05</title><path d="M48.07,94.08A46.43,46.43,0,0,1,22.12,9.16a3.35,3.35,0,1,1,3.75,5.55,39.73,39.73,0,1,0,28.35-6.3,3.35,3.35,0,0,1,1-6.63,46.43,46.43,0,0,1-7.18,92.3Z" fill="url(#linear-gradient)"/><path d="M9.66,37.56A39.72,39.72,0,0,1,25.87,14.71a3.35,3.35,0,1,0-3.75-5.55A46.39,46.39,0,0,0,3.44,35Z" fill="url(#linear-gradient-2)"/><path d="M8.35,47.66a40,40,0,0,1,1.31-10.1L3.44,35a46.16,46.16,0,0,0,8.24,41.46l5.69-3.59A39.57,39.57,0,0,1,8.35,47.66Z" fill="url(#linear-gradient-3)"/><path d="M44.78,94l.53-6.68A39.69,39.69,0,0,1,17.37,72.84l-5.69,3.59A46.37,46.37,0,0,0,44.78,94Z" fill="url(#linear-gradient-4)"/><path d="M73,86.81l-4-5.37a39.51,39.51,0,0,1-20.87,5.94c-.92,0-1.84,0-2.76-.11L44.78,94c1.09.08,2.19.13,3.29.13A46.09,46.09,0,0,0,73,86.81Z" fill="url(#linear-gradient-5)"/><path d="M86.62,57.24a39.85,39.85,0,0,1-17.68,24.2l4,5.37A46.57,46.57,0,0,0,93.35,57.89Z" fill="url(#linear-gradient-6)"/><path d="M87.8,47.66a39.34,39.34,0,0,1-1.18,9.58l6.73.65A46.65,46.65,0,0,0,86.85,22l-5.24,4.25A39.73,39.73,0,0,1,87.8,47.66Z" fill="url(#linear-gradient-7)"/><path d="M55.25,1.78a3.35,3.35,0,0,0-1,6.63A39.42,39.42,0,0,1,81.61,26.25L86.85,22A46.15,46.15,0,0,0,55.25,1.78Z" fill="url(#linear-gradient-8)"/></svg>