<svg xmlns="http://www.w3.org/2000/svg" width="24" height="24" viewBox="0 0 24 24"><title>ic_admin_settings</title><g id="Icons"><path d="M9,4.5A3.5,3.5,0,1,0,12.5,8,3.5,3.5,0,0,0,9,4.5m0,8.75c-2.34,0-7,1.16-7,3.5V18.5h9.69a5.8,5.8,0,0,1-.07-.87A6.13,6.13,0,0,1,12.86,14,13,13,0,0,0,9,13.25m7.87,0a.23.23,0,0,0-.23.18l-.17,1.15a4.37,4.37,0,0,0-.74.41l-1.08-.44c-.1,0-.21,0-.27.11l-.87,1.51a.22.22,0,0,0,.05.28l.93.72a3.66,3.66,0,0,0,0,.87l-.93.72a.23.23,0,0,0-.05.28l.87,1.51c.05.11.17.11.27.11l1.08-.44a3.6,3.6,0,0,0,.74.41l.17,1.15a.22.22,0,0,0,.23.18h1.75a.22.22,0,0,0,.21-.18L19,20.66a4.65,4.65,0,0,0,.73-.41l1.08.44c.11,0,.23,0,.29-.11L22,19.06a.23.23,0,0,0-.05-.28L21,18.06a3.68,3.68,0,0,0,0-.44,2.46,2.46,0,0,0,0-.44l.93-.72a.23.23,0,0,0,.05-.28l-.87-1.51c-.05-.11-.17-.11-.28-.11L19.73,15a3.84,3.84,0,0,0-.74-.41l-.17-1.15a.21.21,0,0,0-.2-.18Zm.87,3.06a1.31,1.31,0,1,1-1.31,1.31A1.31,1.31,0,0,1,17.75,16.31Z" fill="#000001"/></g></svg>