<svg xmlns="http://www.w3.org/2000/svg" width="24" height="24" viewBox="0 0 24 24"><title>ic_alarms_unack_#</title><g id="Icons"><path d="M13.58,11.53l.52-1.15H12.55l.36-1.74h-1.2l-.36,1.74h-.89l.36-1.74H9.64l-.36,1.74H8.07L7.5,11.53H9l-.2.94H7.72L7.2,13.62H8.6l-.36,1.74H9.44l.36-1.74h.87l-.36,1.74h1.22l.36-1.74h1.34l.57-1.15H12.12l.19-.94Zm-2.67.94H10l.19-.94h.88Zm4.39-4h1.5v4.8H15.3Zm0,5.55h1.5v1.5H15.3ZM12,2A10,10,0,1,0,22,12,10,10,0,0,0,12,2Zm0,18a8,8,0,1,1,8-8A8,8,0,0,1,12,20Z" fill="#000001"/></g></svg>