<svg xmlns="http://www.w3.org/2000/svg" width="24" height="24" viewBox="0 0 24 24"><title>ic_alarms_occurrences</title><g id="Icons"><path d="M9.54,14.85h1.63v1.63H9.54Zm1.62-6.39H9.53v4.9h1.63Zm-7,4.72H2a8.37,8.37,0,0,0,1.7,4.12l1.52-1.52A6.11,6.11,0,0,1,4.14,13.18Zm1.07,5.61A8.35,8.35,0,0,0,9.32,20.5V18.37a6.43,6.43,0,0,1-2.64-1.08Zm6.22-.42V20.5a8.35,8.35,0,0,0,4.11-1.71L14,17.29A6.13,6.13,0,0,1,11.43,18.37Zm7.32-7.3A8.44,8.44,0,0,0,2,11.07H4.13a6.33,6.33,0,0,1,12.49,0H12.49l4.7,4.81L22,11.07Z" fill="#000001"/></g></svg>