<svg xmlns="http://www.w3.org/2000/svg" width="24" height="24" viewBox="0 0 24 24"><title>ic_alarms_ack_#</title><g id="Icons"><path d="M10.68,9.87l.45-1H9.78l.31-1.51h-1L8.74,8.87H8l.31-1.51h-1L6.93,8.87h-1l-.5,1H6.73l-.17.82h-1l-.45,1H6.35L6,13.2H7.08l.31-1.51h.76L7.83,13.2H8.9l.31-1.51h1.17l.5-1H9.41l.17-.82Zm-2.32.82H7.59l.17-.82h.77Zm5.12.7h-1.3V7.21h1.3Zm-1.3.65h1.3v1.3h-1.3ZM22,13.73l-7.44,7.44L9.9,16.52l1.31-1.31,3.34,3.34,6.13-6.13ZM8.12,16.3l1.8,1.8h-.1a7.85,7.85,0,1,1,4.68-1.57l-1.12-1.12a6.26,6.26,0,1,0-5.27.88Z" fill="#000001"/></g></svg>