<svg xmlns="http://www.w3.org/2000/svg" width="18" height="18" viewBox="0 0 18 18"><title>ic_alarms_unacknowledgedd_#</title><g id="Icons"><path d="M9,2a7,7,0,1,0,7,7A7,7,0,0,0,9,2Zm1.36,9.29a2.38,2.38,0,0,1-1,.86A2.9,2.9,0,0,1,8,12.43a2.76,2.76,0,0,1-2.21-.93A3.4,3.4,0,0,1,5,9V8.86a3.67,3.67,0,0,1,.79-2.43,2.6,2.6,0,0,1,2.14-.86,2.59,2.59,0,0,1,1.93.71,2.43,2.43,0,0,1,.79,1.79H9.21a1.13,1.13,0,0,0-.36-.93,1.36,1.36,0,0,0-.93-.36,1.29,1.29,0,0,0-1.21.5,2.43,2.43,0,0,0-.43,1.57v.29a3.23,3.23,0,0,0,.43,1.64,1.72,1.72,0,0,0,1.21.5,1.36,1.36,0,0,0,.93-.36,1.7,1.7,0,0,0,.43-.79h1.43A2.16,2.16,0,0,1,10.36,11.29ZM13,12H11.5V11H13Zm0-2H11.5V6H13Z" fill="#d42f2e"/></g></svg>