<svg id="Icons" xmlns="http://www.w3.org/2000/svg" width="24" height="24" viewBox="0 0 24 24"><title>ic_brackets_open</title><g id="brackets_open"><path id="path-1" d="M10,12a17.58,17.58,0,0,1,.19-2.61,20.57,20.57,0,0,1,.47-2.18,12.49,12.49,0,0,1,.61-1.69,9,9,0,0,1,.57-1.13H14a9.22,9.22,0,0,0-.61,1.32,15.18,15.18,0,0,0-.54,1.75,19.37,19.37,0,0,0-.39,2.13A17,17,0,0,0,12.33,12a17,17,0,0,0,.16,2.42,19.62,19.62,0,0,0,.39,2.12,15.18,15.18,0,0,0,.54,1.75A9.22,9.22,0,0,0,14,19.61H11.81a9,9,0,0,1-.57-1.13,12.49,12.49,0,0,1-.61-1.69,20.57,20.57,0,0,1-.47-2.18A17.58,17.58,0,0,1,10,12Z" fill="#000001"/></g></svg>