<svg id="Icons" xmlns="http://www.w3.org/2000/svg" width="24" height="24" viewBox="0 0 24 24"><title>ic_copy_rights</title><path d="M10.08,10.86a2.56,2.56,0,0,1,.3-.87A1.75,1.75,0,0,1,11,9.37a1.77,1.77,0,0,1,.91-.23,1.81,1.81,0,0,1,.63.13,1.61,1.61,0,0,1,.52.36,1.93,1.93,0,0,1,.34.53,1.75,1.75,0,0,1,.14.64H15.3A3.58,3.58,0,0,0,15,9.51a3,3,0,0,0-.7-1,3.27,3.27,0,0,0-1.08-.66,3.86,3.86,0,0,0-1.39-.23,3.91,3.91,0,0,0-1.7.34A3.44,3.44,0,0,0,9,8.87a3.76,3.76,0,0,0-.71,1.36A5.86,5.86,0,0,0,8,11.87v.27a5.85,5.85,0,0,0,.23,1.64,3.64,3.64,0,0,0,.71,1.35,3.41,3.41,0,0,0,1.2.91,4.06,4.06,0,0,0,1.7.34,3.81,3.81,0,0,0,1.32-.23,3.41,3.41,0,0,0,1.08-.63,3.05,3.05,0,0,0,.74-.94,2.69,2.69,0,0,0,.3-1.15H13.49a1.42,1.42,0,0,1-.15.58,1.47,1.47,0,0,1-.36.46,1.58,1.58,0,0,1-.52.3,2,2,0,0,1-.6.1,1.7,1.7,0,0,1-.89-.23,1.75,1.75,0,0,1-.59-.62,2.61,2.61,0,0,1-.3-.88,6.74,6.74,0,0,1-.08-1v-.27A6.66,6.66,0,0,1,10.08,10.86ZM12,2A10,10,0,1,0,22,12,10,10,0,0,0,12,2Zm0,18a8,8,0,1,1,8-8A8,8,0,0,1,12,20Z" fill="#000001"/></svg>