<svg xmlns="http://www.w3.org/2000/svg" width="24" height="24" viewBox="0 0 24 24"><title>ic_content_cut</title><g id="5d485b72-4c43-40f7-8ab5-e49ed65f8d34" data-name="Icons"><path d="M10,6a4,4,0,1,0-4,4,3.9,3.9,0,0,0,1.64-.36L10,12,7.64,14.36A3.9,3.9,0,0,0,6,14a4,4,0,1,0,4,4,3.9,3.9,0,0,0-.36-1.64L12,14l6,6h4L9.64,7.64A3.9,3.9,0,0,0,10,6ZM6,8A2,2,0,1,1,8,6,2,2,0,0,1,6,8ZM6,20a2,2,0,1,1,2-2A2,2,0,0,1,6,20Zm6-8.5a.5.5,0,0,1,.5.5.5.5,0,0,1-1,0A.5.5,0,0,1,12,11.5Zm3-.5L13,9l5-5h4Z" fill="#000001"/></g></svg>