<svg xmlns="http://www.w3.org/2000/svg" width="24" height="24" viewBox="0 0 24 24"><title>ic_cell_op_state_down</title><g id="Icons"><path d="M13.94,14.27l6.32,3.36a10,10,0,0,1-16.62-.11l6.28-3.34a3,3,0,0,0,4,.09ZM9,12a3,3,0,0,1,1.88-2.78V2A10,10,0,0,0,2.71,15.75L9,12.39A3,3,0,0,1,9,12Zm13,0a10,10,0,0,1-.78,3.89l-6.28-3.34a2.94,2.94,0,0,0-2.07-3.38V2A10,10,0,0,1,22,12Zm-1,0a9.08,9.08,0,0,0-7.14-8.81V8.49A4,4,0,0,1,16,12l4.68,2.49A9,9,0,0,0,21,12Zm-9,1a1,1,0,1,0-1-1A1,1,0,0,0,12,13Z" fill="#000001"/></g></svg>