<svg xmlns="http://www.w3.org/2000/svg" width="24" height="24" viewBox="0 0 24 24"><title>ic_DHCPv4_pools</title><g id="Icons">
	<path d="M1.0624,9.1778v2.2177c0,1.2695,1.601,2.3484,3.8465,2.7677v-1.4168c0-0.2691,0.0388-0.5287,0.0953-0.7834
		C2.7089,11.5566,1.0624,10.4652,1.0624,9.1778z"/>
	<path  d="M6.9763,8.4386c-3.2675,0-5.9139-1.3232-5.9139-2.957v2.2177c0,1.4012,1.9489,2.5712,4.5645,2.8767
		C6.3521,9.5526,7.5905,8.7332,9.192,8.2221C8.5073,8.3606,7.7606,8.4386,6.9763,8.4386z"/>
	<path d="M6.9763,6.9602c3.2662,0,5.9139-1.3239,5.9139-2.957s-2.6478-2.957-5.9139-2.957
		c-3.2661,0-5.9139,1.3239-5.9139,2.957S3.7102,6.9602,6.9763,6.9602z"/>
	<path  d="M10.2175,7.9537c0.8243-0.1812,1.7204-0.2881,2.6727-0.3123V5.4816
		C12.8903,6.5165,11.8265,7.4254,10.2175,7.9537z"/>
	<path  d="M12.8781,20.8286c-3.2674,0-5.9139-1.3233-5.9139-2.957v2.2177c0,1.6337,2.6465,2.9569,5.9139,2.9569
		c3.2675,0,5.9139-1.3232,5.9139-2.9569v-2.2177C18.7921,19.5053,16.1456,20.8286,12.8781,20.8286z"/>
	<path d="M12.8781,9.7399c-3.2661,0-5.9139,1.3239-5.9139,2.957c0,1.6331,2.6478,2.957,5.9139,2.957
		c3.2662,0,5.9139-1.3239,5.9139-2.957C18.7921,11.0638,16.1443,9.7399,12.8781,9.7399z"/>
	<path  d="M12.8781,17.1323c-3.2674,0-5.9139-1.3233-5.9139-2.957v2.2177c0,1.6337,2.6465,2.9569,5.9139,2.9569
		c3.2675,0,5.9139-1.3232,5.9139-2.9569v-2.2177C18.7921,15.8091,16.1456,17.1323,12.8781,17.1323z"/>
	<polygon points="21.982,6.4105 21.982,5.0406 19.7672,5.0406 19.7672,6.3591 18.4738,6.3591 21.2777,1.0462 
		18.8707,1.0462 15.9516,6.5767 15.9516,8.3308 19.7672,8.3308 19.7672,10.0462 21.982,10.0462 21.982,8.3308 22.9803,8.3308 
		22.9803,6.4105" fill="#000001"/>
</g>
</svg>
