<svg xmlns="http://www.w3.org/2000/svg" width="24" height="24" viewBox="0 0 24 24"><title>ic_DHCPv6_pools</title><g id="Icons">
	<path d="M1.0692,9.2036v2.2177c0,1.2695,1.601,2.3484,3.8465,2.7677v-1.4167c0-0.2691,0.0388-0.5288,0.0953-0.7835
		C2.7155,11.5823,1.0692,10.4909,1.0692,9.2036z"/>
	<path d="M6.983,8.4644c-3.2675,0-5.9139-1.3232-5.9139-2.957V7.725c0,1.4012,1.9489,2.5712,4.5645,2.8767
		c0.7252-1.0235,1.9636-1.8429,3.5651-2.3539C8.514,8.3864,7.7673,8.4644,6.983,8.4644z"/>
	<path d="M6.983,6.986c3.2662,0,5.9139-1.3239,5.9139-2.957S10.2492,1.072,6.983,1.072s-5.9139,1.3239-5.9139,2.957
		S3.7169,6.986,6.983,6.986z"/>
	<path d="M10.2242,7.9794c0.8243-0.1812,1.7204-0.2881,2.6727-0.3123V5.5073
		C12.8969,6.5422,11.8333,7.4511,10.2242,7.9794z"/>
	<path d="M12.8848,20.8543c-3.2674,0-5.9139-1.3233-5.9139-2.957v2.2177c0,1.6337,2.6465,2.9569,5.9139,2.9569
		c3.2675,0,5.9139-1.3232,5.9139-2.9569v-2.2177C18.7988,19.531,16.1523,20.8543,12.8848,20.8543z"/>
	<path d="M12.8848,9.7656c-3.2661,0-5.9139,1.3239-5.9139,2.957c0,1.6331,2.6478,2.957,5.9139,2.957
		c3.2662,0,5.9139-1.3239,5.9139-2.957C18.7988,11.0895,16.151,9.7656,12.8848,9.7656z"/>
	<path d="M12.8848,17.158c-3.2674,0-5.9139-1.3233-5.9139-2.957v2.2177c0,1.6337,2.6465,2.9568,5.9139,2.9568
		c3.2675,0,5.9139-1.3232,5.9139-2.9568v-2.2177C18.7988,15.8348,16.1523,17.158,12.8848,17.158z"/>
	<path d="M22.8311,5.7228c-0.1616-0.374-0.3745-0.6865-0.6382-0.9375c-0.2637-0.2505-0.5654-0.4399-0.9053-0.5674
		c-0.3403-0.1279-0.689-0.1914-1.0459-0.1914c-0.2979,0-0.6079,0.0405-0.9312,0.1211c-0.3232,0.0811-0.5952,0.2231-0.8164,0.4272
		c0.1191-0.5273,0.3511-0.9268,0.6953-1.1987c0.3442-0.2725,0.7544-0.4082,1.231-0.4082c0.1865,0,0.3716,0.0171,0.5547,0.0508
		c0.1826,0.0342,0.3486,0.0767,0.4976,0.1274c0.1484,0.0513,0.2783,0.1021,0.3887,0.1533c0.1104,0.0508,0.1958,0.0938,0.2554,0.1274
		l0.7778-1.7344c-0.3403-0.23-0.7227-0.4019-1.1479-0.5166s-0.9185-0.1724-1.4795-0.1724c-0.6631,0-1.2544,0.1274-1.7729,0.3828
		c-0.5186,0.2549-0.9521,0.6143-1.3008,1.0776s-0.6143,1.0181-0.7974,1.6646c-0.1826,0.646-0.2739,1.3647-0.2739,2.1553
		c0,0.6123,0.0718,1.167,0.2168,1.6646c0.1445,0.4976,0.3633,0.9229,0.6567,1.2754c0.2935,0.353,0.6611,0.625,1.103,0.8164
		c0.4424,0.1914,0.9653,0.2871,1.5688,0.2871c0.4849,0,0.9355-0.0747,1.3521-0.2231c0.4165-0.1489,0.7783-0.3638,1.0845-0.6445
		c0.3062-0.2803,0.5439-0.625,0.7139-1.0327c0.1704-0.4082,0.2554-0.876,0.2554-1.4033
		C23.0733,6.5309,22.9923,6.0968,22.8311,5.7228z M20.3882,8.1398c-0.2168,0.2168-0.4907,0.3252-0.8228,0.3252
		c-0.3486,0-0.6162-0.123-0.8032-0.3701c-0.187-0.2461-0.2808-0.5737-0.2808-0.9819s0.1128-0.7227,0.3379-0.9438
		c0.2256-0.2212,0.4824-0.3315,0.772-0.3315c0.3823,0,0.665,0.1235,0.8481,0.3696c0.1826,0.2471,0.2739,0.5659,0.2739,0.957
		C20.7134,7.5978,20.605,7.923,20.3882,8.1398z" fill="#000001"/>
</g>
</svg>
