<svg xmlns="http://www.w3.org/2000/svg" width="24" height="24" viewBox="0 0 24 24"><title>ic_DHCP_pools</title><g id="Icons">
	<path d="M3.2318,9.1649v2.2177c0,1.2695,1.601,2.3484,3.8465,2.7677v-1.4168c0-0.2691,0.0388-0.5288,0.0953-0.7835
		C4.8782,11.5437,3.2318,10.4523,3.2318,9.1649z"/>
	<path d="M9.1457,8.4257c-3.2675,0-5.9139-1.3232-5.9139-2.957v2.2177c0,1.4012,1.9489,2.5712,4.5645,2.8767
		c0.7252-1.0235,1.9636-1.8429,3.5651-2.3539C10.6767,8.3477,9.93,8.4257,9.1457,8.4257z"/>
	<ellipse cx="9.1457" cy="3.9903" rx="5.9139" ry="2.957"/>
	<path  d="M15.0596,5.4687c0,1.0349-1.0637,1.9438-2.6727,2.4721c0.8243-0.1812,1.7204-0.2881,2.6727-0.3123V5.4687z"/>
	<path d="M15.0475,20.8156c-3.2674,0-5.9139-1.3233-5.9139-2.957v2.2177c0,1.6337,2.6465,2.9569,5.9139,2.9569
		c3.2675,0,5.9139-1.3232,5.9139-2.9569v-2.2177C20.9614,19.4924,18.315,20.8156,15.0475,20.8156z"/>
	<ellipse cx="15.0475" cy="12.684" rx="5.9139" ry="2.957"/>
	<path  d="M15.0475,17.1194c-3.2674,0-5.9139-1.3233-5.9139-2.957v2.2177c0,1.6337,2.6465,2.9569,5.9139,2.9569
		c3.2675,0,5.9139-1.3232,5.9139-2.9569v-2.2177C20.9614,15.7962,18.315,17.1194,15.0475,17.1194z"  fill="#000001"/>
</g>
</svg>
