<svg xmlns="http://www.w3.org/2000/svg" width="24" height="24" viewBox="0 0 24 24"><title>ic_enbop_state_down</title><g id="Icons"><path d="M21.16,19l-3,3-3-3h2V13h2v6ZM12,4.68A3.09,3.09,0,0,1,12,9l.87.87a4.33,4.33,0,0,0,0-6.11ZM15.09,2l-.87.87a5.56,5.56,0,0,1,0,7.86l.87.87A6.8,6.8,0,0,0,15.09,2Zm-8,1.69a4.33,4.33,0,0,0,0,6.11l.87-.87a3.09,3.09,0,0,1,0-4.37ZM4.83,2a6.8,6.8,0,0,0,0,9.61l.87-.87a5.56,5.56,0,0,1,0-7.86ZM11.1,6.57a1.14,1.14,0,1,0-2.29,0,1.12,1.12,0,0,0,.52.93l-.52,9.92a.57.57,0,0,0,.57.57h1.14a.57.57,0,0,0,.57-.57l-.52-9.92A1.12,1.12,0,0,0,11.1,6.57Z" fill="#000001"/></g></svg>