<svg id="Icons" xmlns="http://www.w3.org/2000/svg" width="24" height="24" viewBox="0 0 24 24"><title>ic_external_connection</title>
 <path d="M7.697629,13.998413h9.128723c1.897156,0,3.438843-1.527649,3.557373-3.524841v-0.120483
		c0-1.759277-1.423279-2.934753-3.201965-3.050598c-0.494873-2.819397-3.198365-4.710754-6.045289-4.229187
		C9.471616,3.425476,8.053037,4.483521,7.342161,5.892212c-2.134094,0.234802-3.79425,1.64502-3.79425,3.877014
		C3.54791,12.118591,5.445066,13.998413,7.697629,13.998413z"/>
	<path d="M14.795774,19c-0.303406-0.865967-0.991455-1.543335-1.859131-1.838135V15.9375h-1.941711v1.224426
		C10.127316,17.456726,9.439206,18.134033,9.1358,19H1.965818v2H9.1358c0.409973,1.169983,1.52002,2,2.830017,2
		s2.419983-0.830017,2.829956-2h7.170045v-2H14.795774z" fill="#000001"/>

</svg>
