<?xml version="1.0" encoding="utf-8"?>
<!-- Generator: Adobe Illustrator 21.0.2, SVG Export Plug-In . SVG Version: 6.00 Build 0)  -->
<svg version="1.1" id="Layer_1" xmlns="http://www.w3.org/2000/svg" xmlns:xlink="http://www.w3.org/1999/xlink" x="0px" y="0px"
	 viewBox="0 0 255 50" style="enable-background:new 0 0 255 50;" xml:space="preserve">
<style type="text/css">
	.st0{opacity:0.54;}
</style>
<title>file upload graph</title>
<g class="st0">
	<path d="M180.1,29.5c-1.1-6.2-7.1-10.3-13.2-9.2c-3.5,0.6-6.5,2.9-8.2,6.1c-5,0.7-8.5,5.4-7.8,10.4c0.6,4.4,4.3,7.7,8.8,7.9h19.9
		c4.2,0.1,7.7-3.2,7.9-7.3C187.6,33.2,184.3,29.7,180.1,29.5z"/>
	<path d="M78.1,23.3h24.4v15.2H78.1V23.3z M102.5,41.6c1.7-0.1,3-1.4,3-3.1V23.3c0-1.7-1.4-3.1-3.1-3.1l0,0H78.1
		c-1.7,0-3.1,1.4-3.1,3.1l0,0v15.2c0,1.7,1.4,3.1,3.1,3.1l0,0H72v3.1h36.7v-3.1L102.5,41.6z"/>
	<polygon points="148.8,10.3 154.6,10.3 154.6,16.1 148.8,16.1 	"/>
	<polygon points="128.6,5 133,5 133,9.3 128.6,9.3 	"/>
	<polygon points="112.9,7.3 116.2,7.3 116.2,10.6 112.9,10.6 	"/>
	<polygon points="100.6,13.8 102.9,13.8 102.9,16.2 100.6,16.2 	"/>
</g>
</svg>
