<svg xmlns="http://www.w3.org/2000/svg" width="24" height="24" viewBox="0 0 24 24"><title>ic_fan</title><g id="Icons">
<path d="M10.6159,10.3391c-0.2865,0.2236-0.5101,0.5171-0.6429,0.8525c-0.6498-0.1328-1.3835-0.4332-1.7329-1.125
		c-0.8245-1.656-3.312-1.5792-3.312,1.5652c0,2.4945,2.767,3.0395,5.3454,1.656c0.2236,0.2795,0.524,0.5031,0.8665,0.6428
		c-0.1398,0.6429-0.4472,1.3696-1.132,1.7119c-1.649,0.8245-1.5862,3.326,1.5582,3.326c2.5015,0,3.0535-2.774,1.663-5.3524
		c0.2795-0.2376,0.4961-0.5241,0.6359-0.8595c0.6498,0.1328,1.3905,0.4402,1.7399,1.132c0.8245,1.6561,3.319,1.5862,3.319-1.5582
		c0-2.5015-2.781-3.0535-5.3663-1.6561c-0.2236-0.2795-0.5171-0.4961-0.8525-0.6358c0.1328-0.6498,0.4402-1.3835,1.132-1.726
		c1.649-0.8245,1.5721-3.319-1.5722-3.319C9.7774,4.9937,9.2254,7.7607,10.6159,10.3391z M11.9155,11.2824
		c0.3859,0,0.6988,0.3129,0.6988,0.6988c0,0.3859-0.3129,0.6987-0.6988,0.6987c-0.3859,0-0.6987-0.3129-0.6987-0.6987
		C11.2168,11.5952,11.5296,11.2824,11.9155,11.2824z"/>
	<path d="M22,4c0-1.1046-0.8954-2-2-2h-9H4C2.8954,2,2,2.8954,2,4v16c0,1.1046,0.8954,2,2,2h7h9c1.1046,0,2-0.8954,2-2
		v-7V4z M20,13v7h-9H4V4h7h9V13z" fill="#000001"/>
</g>
</svg>
