<svg xmlns="http://www.w3.org/2000/svg" width="24" height="24" viewBox="0 0 24 24"><title>ic_group_health</title><g id="Icons"><path d="M18.66,12a1.21,1.21,0,0,1-2.32.48H15.19L14,14.08l-1.14-3.42L11,16.15,9.34,11.74l-.25.75H7.64a1.22,1.22,0,1,1,0-.91h.76L9.27,9,11,13.43l1.87-5.66,1.46,4.38.45-.6h1.6a1.21,1.21,0,0,1,2.33.42Zm2.43-6.33V18.36H22V22H18.36v-.91H5.64V22H2V18.36h.91V5.64H2V2H5.64v.91H18.36V2H22V5.64Zm-1.82,0h-.91V4.73H5.64v.91H4.73V18.36h.91v.91H18.36v-.91h.91Z" fill="#000001"/></g></svg>