<svg id="Icons" xmlns="http://www.w3.org/2000/svg" width="24" height="24" viewBox="0 0 24 24"><title>ic_geo_map_view</title><path d="M5,4A2,2,0,0,0,3,6V16.29l8.18-8.18A7,7,0,0,1,11,6.53,5.51,5.51,0,0,1,11.59,4H5M18,21a2,2,0,0,0,2-2V11.86c-.76,1.14-1.69,2.35-2.71,3.64l-.79,1-.78-1a40.52,40.52,0,0,1-3.33-4.59,12.65,12.65,0,0,1-.86-1.73L7.46,13.25,15.21,21H18M3,19a2,2,0,0,0,2,2h8.79l-7-7L3,17.71V19m13.5-4C19.11,11.63,21,9.1,21,6.57a4.5,4.5,0,1,0-9,0c0,2.53,1.87,5.06,4.5,8.43m2-8.5a2,2,0,1,1-2-2A2,2,0,0,1,18.5,6.5Z" fill="#000001"/></svg>