<svg id="Icons" xmlns="http://www.w3.org/2000/svg" width="24" height="24" viewBox="0 0 24 24"><title>ic_help_outline</title><path d="M12,2A10,10,0,1,0,22,12,10,10,0,0,0,12,2Zm0,18a8,8,0,1,1,8-8A8,8,0,0,1,12,20Z" fill="#000001"/><path d="M10.84,13.83a3.63,3.63,0,0,1,.1-.93,2.34,2.34,0,0,1,.28-.71,2.8,2.8,0,0,1,.45-.59c.18-.19.38-.38.61-.58l.34-.28a3.11,3.11,0,0,0,.31-.32,1.86,1.86,0,0,0,.22-.35.86.86,0,0,0,.09-.39A1,1,0,0,0,12.92,9,1.26,1.26,0,0,0,12,8.62a2.66,2.66,0,0,0-1.21.28,3.71,3.71,0,0,0-1,.71L8.79,8.43a3.57,3.57,0,0,1,.52-.5A4.11,4.11,0,0,1,10,7.47,4.75,4.75,0,0,1,11,7.13,4.31,4.31,0,0,1,12.06,7a4.06,4.06,0,0,1,1.5.24,2.75,2.75,0,0,1,1,.62,2.32,2.32,0,0,1,.52.84,2.83,2.83,0,0,1,.16.88,2.34,2.34,0,0,1-.12.79,2.12,2.12,0,0,1-.31.6,2.79,2.79,0,0,1-.44.47,5.74,5.74,0,0,1-.49.4,3,3,0,0,0-.45.35,2.46,2.46,0,0,0-.38.41,2.07,2.07,0,0,0-.28.53,2.11,2.11,0,0,0-.1.7Zm-.17,2.07a1.09,1.09,0,0,1,.32-.8,1,1,0,0,1,.78-.33,1.13,1.13,0,0,1,1.12,1.13,1,1,0,0,1-.33.78,1.09,1.09,0,0,1-.79.32,1.09,1.09,0,0,1-1.1-1.1Z" fill="#000001"/></svg>