<svg id="Icons" xmlns="http://www.w3.org/2000/svg" width="24" height="24" viewBox="0 0 24 24"><title>ic_hide</title><path d="M22,11.91a10.66,10.66,0,0,1-3.09,4.36l-2.64-2.64A5.31,5.31,0,0,0,16.64,12a4.5,4.5,0,0,0-4.55-4.55,4.4,4.4,0,0,0-1.64.27l-2.09-2A9.89,9.89,0,0,1,12,5.09,10.71,10.71,0,0,1,22,11.91Z" fill="#000001"/><path d="M14.73,11.91v.18L11.82,9.18H12A2.68,2.68,0,0,1,14.73,11.91Z" fill="#000001"/><path d="M4.09,3.73,2.91,4.91,5,6.91l.36.45A11.25,11.25,0,0,0,2,11.91a10.71,10.71,0,0,0,10,6.82A12,12,0,0,0,16,18l.36.36L19,21l1.18-1.18ZM12,16.45a4.5,4.5,0,0,1-4.55-4.55,5,5,0,0,1,.45-2l1.36,1.36v.64A2.68,2.68,0,0,0,12,14.64a1.77,1.77,0,0,0,.64-.09L14,15.91A3.89,3.89,0,0,1,12,16.45Z" fill="#000001"/></svg>