<?xml version="1.0" encoding="utf-8"?>
<!-- Generator: Adobe Illustrator 21.1.0, SVG Export Plug-In . SVG Version: 6.00 Build 0)  -->
<svg version="1.1" id="Layer_1" xmlns="http://www.w3.org/2000/svg" xmlns:xlink="http://www.w3.org/1999/xlink" x="0px" y="0px"
	 width="24px" height="24px" viewBox="0 0 24 24" enable-background="new 0 0 24 24" xml:space="preserve">
<title>ic_Hop</title>
<path fill="#000001" d="M8,8h2v2H8V8z M10,10h2v2h-2V10z M12,12h2v2h-2V12z M14,14h2v2h-2V14z M22,8V2h-6v2H8V2H2v6h6V6h8v2H22z
	 M6,6H4V4h2V6z M8,18v-2H2v6h6v-2h8v2h6v-6h-6v2H8z M18,18h2v2h-2V18z"/>
</svg>
