<svg id="Icons" xmlns="http://www.w3.org/2000/svg" width="24" height="24" viewBox="0 0 24 24"><title>ic_ipoe</title><path d="M22,13.99976v-12H2v12h9v1H10v1H2v2H5v1H4v3H8v-3H7v-1h3v1h4v-1h3v1H16v3h4v-3H19v-1h3v-2H14v-1H13v-1Zm-18-2v-8H20v8ZM8.38724,4.79785h1.6914V11.125H8.38724Zm2.72656,0h2.41211a3.41755,3.41755,0,0,1,1.18848.17969,1.98334,1.98334,0,0,1,.75976.48242,1.75092,1.75092,0,0,1,.40528.68848,2.62451,2.62451,0,0,1,.12207.792,2.49536,2.49536,0,0,1-.12207.75977,1.74131,1.74131,0,0,1-.42286.69335,2.1977,2.1977,0,0,1-.80957.50391,3.64933,3.64933,0,0,1-1.2832.19336h-.57617V11.125H11.1138Zm2.23242,2.89844a2.7905,2.7905,0,0,0,.34668-.02246.91951.91951,0,0,0,.31934-.09961.58316.58316,0,0,0,.2334-.2334.8592.8592,0,0,0,.09082-.42773.753.753,0,0,0-.07227-.34668.5989.5989,0,0,0-.18945-.22071.79825.79825,0,0,0-.27832-.11718,1.57339,1.57339,0,0,0-.333-.03516h-.67578V7.69629Z" fill="#000001"/></svg>