<svg id="Icons" xmlns="http://www.w3.org/2000/svg" width="24" height="24" viewBox="0 0 24 24"><title>ic_icmp_ping</title><path d="M6,18h6v2H4V14H6Zm5.91669-7.4h-11V9h2.5a1.479,1.479,0,0,1-1.5-1.4538V3.45374A1.479,1.479,0,0,1,3.41666,2h6a1.479,1.479,0,0,1,1.5,1.45374V7.5462A1.479,1.479,0,0,1,9.41666,9h2.5Zm-8.5-3.1h6v-4h-6ZM22.06723,18.38477a3.5,3.5,0,1,1-3.5-3.5A3.504,3.504,0,0,1,22.06723,18.38477Zm-2,0a1.5,1.5,0,1,0-1.5,1.5A1.5,1.5,0,0,0,20.06723,18.38477ZM18.16666,12h2V4h-6V6h4Z" fill="#000001"/></svg>