<svg id="Icons" xmlns="http://www.w3.org/2000/svg" width="24" height="24" viewBox="0 0 24 24"><title>ic_internal_connection</title><path d="M14.790172,19c-0.303406-0.865967-0.991516-1.543274-1.859131-1.838074V15.9375h-1.941711v1.224365
		C10.121654,17.456665,9.433604,18.134033,9.130198,19H1.960154v2h7.170044c0.409973,1.169983,1.519958,2,2.829956,2
		s2.420044-0.830017,2.830017-2h7.169982v-2H14.790172z"/>
	<path d="M7.071299,14.081787h9.777771c0.327271-0.023499,0.587646-0.283875,0.611084-0.611145V6.748413
		c-0.023438-0.327271-0.283813-0.587646-0.611084-0.611084H7.071299C6.743968,6.160767,6.483653,6.421143,6.460154,6.748413
		v6.722229C6.483653,13.797913,6.743968,14.058289,7.071299,14.081787z"/>
	<path d="M7.071299,5.526184h9.777771c0.327271-0.023438,0.587646-0.283813,0.611084-0.611084V2.470642
		c-0.023438-0.327271-0.283813-0.587646-0.611084-0.611084H7.071299C6.743968,1.882996,6.483653,2.143372,6.460154,2.470642V4.9151
		C6.483653,5.242371,6.743968,5.502747,7.071299,5.526184z M11.960155,3.081787h4.277831v1.222168h-4.277831V3.081787z" fill="#000001"/>
</svg>
