<svg xmlns="http://www.w3.org/2000/svg" width="24" height="24" viewBox="0 0 24 24"><title>ic_LLI</title><g id="Icons">
<path  d="M19.6288,13.2089c0,0-0.0012,0-0.0024,0l-0.018,0.0018c-0.1042,0.0006-0.2079,0.0096-0.2847,0.0222
		c-0.5915,0.0204-1.1501,0.3201-1.4785,0.7827c-0.1288,0.1462-0.2385,0.3069-0.3182,0.4621
		c-0.0599,0.0971-0.1139,0.1948-0.166,0.2877l-0.0366,0.0665c-0.0869,0.1564-0.317,0.5723-0.3848,0.6125
		c-0.0929-0.0402-0.3231-0.4561-0.4099-0.6125c-0.3524-0.6377-0.8852-1.6014-2.0575-1.6014c-1.1567,0-1.6901,0.9481-2.058,1.6014
		c-0.0863,0.1564-0.3159,0.5723-0.3788,0.6137c-0.0791-0.0396-0.2727-0.3865-0.4003-0.6155
		c-0.3524-0.6377-0.8852-1.6014-2.0575-1.6014c-1.1567,0-1.6901,0.9476-2.0575,1.6014c-0.0953,0.1714-0.317,0.5723-0.3806,0.6131
		c-0.0827-0.0402-0.2859-0.4124-0.395-0.6119c-0.2787-0.5106-0.6605-1.21-1.3862-1.4803c-0.5735-0.2637-1.2166-0.2889-1.8087-0.0684
		c-0.5922,0.22-1.0632,0.6569-1.3269,1.231c-0.2637,0.5742-0.2877,1.2166-0.0684,1.8088c0.22,0.5921,0.6569,1.0632,1.231,1.3268
		c0.9362,0.4285,2.0425,0.1936,2.7275-0.5496c0.3021,0.2032,0.6526,0.2955,1.0266,0.3063c1.1537,0,1.6907-0.9517,2.0581-1.6014
		c0.0863-0.1564,0.3158-0.5729,0.3823-0.6125c0.0911,0.0402,0.3207,0.4561,0.4075,0.6125c0.3524,0.6376,0.8858,1.6014,2.0575,1.6014
		c1.1585,0,1.6919-0.9493,2.0575-1.6014c0.0869-0.1564,0.317-0.5724,0.3835-0.6125c0.0929,0.0402,0.3224,0.4561,0.4093,0.6125
		c0.3524,0.6376,0.8858,1.6014,2.0551,1.6014c0.3284,0.006,0.6556-0.0857,0.9373-0.2529c0.4597,0.5112,1.1052,0.7803,1.7584,0.7803
		c0.4849,0,0.9739-0.1481,1.394-0.4561c1.0512-0.7695,1.2795-2.251,0.5094-3.3022C21.1062,13.5703,20.3947,13.2089,19.6288,13.2089z
		 M4.7237,15.7051c-0.0714,0.1199-0.202,0.1935-0.3416,0.1935c-0.0012,0-0.0018,0-0.0018,0H4.3383
		c-0.2014-0.0203-0.359-0.1906-0.359-0.3973c0-0.29,0.344-0.4896,0.5867-0.3428l0.0576,0.0269
		c0.0707,0.054,0.121,0.1301,0.1438,0.2182C4.7932,15.5061,4.7782,15.6134,4.7237,15.7051z M19.618,15.9742
		c-0.2199,0-0.3991-0.1792-0.3991-0.3992s0.1792-0.3992,0.3991-0.3992c0.22,0,0.3992,0.1792,0.3992,0.3992
		S19.838,15.9742,19.618,15.9742z"/>
	<polygon points="18.0058,7.0546 18.0058,8.0546 6.0058,8.0546 6.0058,7.0546 2.0058,7.0546 2.0058,11.0546 
		6.0058,11.0546 6.0058,10.0546 18.0058,10.0546 18.0058,11.0546 22.0058,11.0546 22.0058,7.0546" fill="#000001"/>
</g>
</svg>
