<svg xmlns="http://www.w3.org/2000/svg" width="24" height="24" viewBox="0 0 24 24"><title>ic_lsp_attributes</title><g id="Icons">

<polygon points="8.9996,5 4.9996,5 4.9996,9 5.9996,9 5.9996,15 4.9996,15 4.9996,19 8.9996,19 8.9996,15 7.9996,15 
		7.9996,9.4556 16.0546,17.5106 14.4571,19 18.9996,19.0112 19.011,14.4773 17.4781,16.1059 8.9996,7.6274 	"/>
	<path  d="M19.9996,2h-9.0001H3.9996c-1.1046,0-2,0.8954-2,2v16c0,1.1046,0.8954,2,2,2h6.9999h9.0001
		c1.1046,0,2-0.8954,2-2v-7V4C21.9996,2.8954,21.1041,2,19.9996,2z M19.9996,13v7h-9.0001H3.9996V4h6.9999h9.0001V13z" fill="#000001"/>
</g>
</svg>
