<svg xmlns="http://www.w3.org/2000/svg" width="24" height="24" viewBox="0 0 24 24"><title>ic_log</title><g id="Icons"><path d="M14,6H6V8h8ZM6,12h8V10H6Zm0,4h5V14H6ZM4,20V4H16v7h2V4a2,2,0,0,0-2-2H4A2,2,0,0,0,2,4V20a2,2,0,0,0,2,2h8V20H4Z" fill="#000001"/><polygon points="17.28 17.14 19.5 18.46 19.08 19.14 16.44 17.56 16.44 14.22 17.28 14.22 17.28 17.14" fill="#000001"/><path d="M17,12a5,5,0,1,0,5,5A5,5,0,0,0,17,12Zm0,8.89A3.89,3.89,0,1,1,20.89,17,3.89,3.89,0,0,1,17,20.89Z" fill="#000001"/></g></svg>