<svg xmlns="http://www.w3.org/2000/svg" width="24" height="24" viewBox="0 0 24 24"><title>ic_lost_steering</title><g id="Icons">

<path d="M12.175,15.0016c-0.3344,0-0.6077,0.2736-0.6077,0.6077c0,0.334,0.2733,0.6076,0.6077,0.6076
		c0.3341,0,0.6077-0.2736,0.6077-0.6076C12.7827,15.2752,12.5092,15.0016,12.175,15.0016z"/>
	<path d="M5.5407,12.2759c-1.8409,0-3.3334,1.4924-3.3334,3.3334c0,1.8409,1.4924,3.3334,3.3334,3.3334
		s3.3333-1.4924,3.3333-3.3334C8.874,13.7683,7.3817,12.2759,5.5407,12.2759z M5.5407,16.9781
		c-0.7548,0-1.3688-0.6141-1.3688-1.3688c0-0.7548,0.614-1.3689,1.3688-1.3689s1.3688,0.6141,1.3688,1.3689
		C6.9095,16.3641,6.2955,16.9781,5.5407,16.9781z"/>
	<path d="M14.2236,15.0016c-0.3344,0-0.6076,0.2736-0.6076,0.6077c0,0.334,0.2733,0.6076,0.6076,0.6076
		c0.3342,0,0.6077-0.2736,0.6077-0.6076C14.8313,15.2752,14.5578,15.0016,14.2236,15.0016z"/>
	<path d="M10.0917,15.0016c-0.3344,0-0.6077,0.2736-0.6077,0.6077c0,0.334,0.2733,0.6076,0.6077,0.6076
		c0.334,0,0.6077-0.2736,0.6077-0.6076C10.6994,15.2752,10.4258,15.0016,10.0917,15.0016z"/>
	<path d="M13.9573,7.4843v2h4h2v-2v-4h-2v2.6529C16.0734,4.4227,13.64,3.454,11.033,3.454
		c-3.2529,0-6.2505,1.4873-8.2251,4.0811c-0.3345,0.4395-0.249,1.0664,0.1904,1.4014s1.0674,0.25,1.4014-0.1904
		C5.992,6.6542,8.41,5.454,11.033,5.454c2.0353,0,3.9416,0.7297,5.4399,2.0303H13.9573z"/>
	<path d="M21.3884,12.7778c-0.0917-0.2419-0.2415-0.4561-0.4503-0.643c-0.2088-0.1869-0.478-0.3389-0.8076-0.4561
		c-0.33-0.1172-0.7328-0.1757-1.209-0.1757c-0.3296,0-0.6318,0.0312-0.9064,0.0934c-0.275,0.0621-0.524,0.1444-0.7476,0.2473
		c-0.2231,0.1024-0.4248,0.2214-0.6041,0.3568c-0.1798,0.136-0.339,0.2768-0.478,0.4235l0.9229,1.1649
		c0.2638-0.2419,0.5259-0.4177,0.7856-0.5276c0.2603-0.11,0.5442-0.165,0.8518-0.165c0.2419,0,0.4266,0.0496,0.5549,0.1484
		c0.1284,0.0988,0.1923,0.2325,0.1923,0.4011c0,0.11-0.0165,0.207-0.0492,0.2911c-0.0331,0.0845-0.0845,0.165-0.1542,0.2419
		c-0.0693,0.0769-0.1592,0.1592-0.2692,0.2473c-0.1096,0.0881-0.2379,0.1976-0.3846,0.3295s-0.2822,0.2656-0.4064,0.4011
		c-0.1248,0.1359-0.2308,0.288-0.3188,0.4561c-0.0876,0.1686-0.1574,0.3608-0.2088,0.5773
		c-0.0515,0.216-0.0769,0.4669-0.0769,0.7526h1.8682c0.0072-0.139,0.0237-0.2692,0.0497-0.3899
		c0.0255-0.1212,0.0675-0.2366,0.1261-0.3466c0.0585-0.1096,0.1377-0.2195,0.2365-0.3295c0.0988-0.11,0.2253-0.2231,0.3792-0.3408
		c0.1976-0.139,0.3734-0.2799,0.5272-0.423c0.1538-0.1426,0.2839-0.2947,0.3904-0.4561c0.106-0.1609,0.1865-0.3349,0.2415-0.5219
		c0.055-0.1869,0.0827-0.3975,0.0827-0.6318C21.5261,13.2612,21.48,13.0193,21.3884,12.7778z"/>
	<path  d="M18.5919,17.8746c-0.3152,0-0.5679,0.0988-0.7584,0.2964c-0.1905,0.1981-0.2857,0.4507-0.2857,0.7584
		c0,0.3077,0.0952,0.5603,0.2857,0.7584c0.1905,0.1976,0.4431,0.2964,0.7584,0.2964c0.3148,0,0.5674-0.0934,0.7584-0.2804
		c0.1905-0.1865,0.2858-0.4449,0.2858-0.7745c0-0.3295-0.0953-0.588-0.2858-0.7749C19.1593,17.9677,18.9067,17.8746,18.5919,17.8746
		z" fill="#000001"/>
</g>
</svg>
