<svg id="Icons" xmlns="http://www.w3.org/2000/svg" width="24" height="24" viewBox="0 0 24 24"><title>ic_launch_FM</title><path d="M20.13268,12.03581v1.99072h-4.8374a1.00074,1.00074,0,0,1-.85254-.48193l-.48389-.80371-1.52832,3.81005a.98314.98314,0,0,1-.28222.38135l-.084.07178H10.93981l-.08447-.07324a.99172.99172,0,0,1-.313-.502L9.02721,10.55143,7.88366,13.402a.98964.98964,0,0,1-.92383.62451H3.94974V12.03581H6.286L8.30944,6.99235a1.00936,1.00936,0,0,1,.99072-.62305.994.994,0,0,1,.89746.74463l1.51514,5.87793,1.14355-2.85058a.99917.99917,0,0,1,.84375-.62159.97819.97819,0,0,1,.93262.47852l1.22559,2.0376ZM20.99954,10v8.83911c0,.05512-.0122.10681-.01623.16089a2.15417,2.15417,0,0,1-2.14466,2H5.16043a2.1609,2.1609,0,0,1-2.16089-2.16089V5.15991a2.15321,2.15321,0,0,1,2-2.1438C5.05331,3.01208,5.10471,3,5.15945,3h8.84009V1H5.12466A4.1251,4.1251,0,0,0,.99954,5.12512V18.87488A4.12514,4.12514,0,0,0,5.12466,23H18.87442a4.12513,4.12513,0,0,0,4.12512-4.12512V10ZM15.91623,1.09v2h3.59L16.74014,5.85608l1.4444,1.37561L20.91623,4.5V8.09h2v-7Z" fill="#000001"/></svg>