<svg xmlns="http://www.w3.org/2000/svg" width="24" height="24" viewBox="0 0 24 24"><title>ic_module</title><g id="Icons">
	<path  d="M19.201,13.9791h-5.4445c-0.4296,0-0.7778,0.3483-0.7778,0.7778v5.4445c0,0.4296,0.3482,0.7778,0.7778,0.7778
		h5.4445c0.4296,0,0.7778-0.3482,0.7778-0.7778v-5.4445C19.9787,14.3274,19.6305,13.9791,19.201,13.9791z"/>
	<path d="M10.2218,5H4.7773C4.3478,5,3.9995,5.3482,3.9995,5.7778v5.4445C3.9995,11.6517,4.3478,12,4.7773,12h5.4445
		c0.4296,0,0.7778-0.3483,0.7778-0.7778V5.7778C10.9995,5.3482,10.6513,5,10.2218,5z"/>
	<path d="M10.2218,13.9791H4.7773c-0.4295,0-0.7778,0.3483-0.7778,0.7778v5.4445c0,0.4296,0.3483,0.7778,0.7778,0.7778
		h5.4445c0.4296,0,0.7778-0.3482,0.7778-0.7778v-5.4445C10.9995,14.3274,10.6513,13.9791,10.2218,13.9791z"/>
	<path d="M20.7495,3h-6.5c-0.6904,0-1.25,0.5596-1.25,1.25v6.5c0,0.6904,0.5596,1.25,1.25,1.25h6.5
		c0.6904,0,1.25-0.5596,1.25-1.25v-6.5C21.9995,3.5596,21.4399,3,20.7495,3z M19.9995,10h-5V5h5V10z" fill="#000001"/>
</g>
</svg>
