<svg id="Icons" xmlns="http://www.w3.org/2000/svg" width="24" height="24" viewBox="0 0 24 24"><title>ic_maintanance_off</title>
<circle class="st0" cx="4.075134" cy="20.016785" r="1"/>
	<path d="M1.333313,6.64502l6.530701,6.53064l-6.337036,6.336975c-0.329956,0.247498-0.329956,0.824951,0.08252,1.154968
		l1.8974,1.8974c0.330017,0.330017,0.824951,0.330017,1.154968,0l6.295715-6.295715L17.063354,22.375l1.269958-1.27002
		L2.603333,5.375L1.333313,6.64502z M4.075134,21.016785c-0.552307,0-1-0.447754-1-1c0-0.552307,0.447693-1,1-1
		c0.552246,0,1,0.447693,1,1C5.075134,20.569031,4.62738,21.016785,4.075134,21.016785z"/>
	<path d="M22.121216,4.528198L18.491394,8.0755L16.458313,7.625l-0.441833-2.024353l3.547363-3.547363
		c-1.979919-0.907471-4.454834-0.577454-6.104736,1.072449c-1.567444,1.567444-1.979919,3.794861-1.237427,5.692261
		l-1.836304,1.836304l3.093628,3.093567l1.877502-1.877502c1.897461,0.742432,4.124817,0.329956,5.692261-1.237488
		C22.698669,8.982971,23.111206,6.508057,22.121216,4.528198z" fill="#000001"/>
</svg>
