<svg xmlns="http://www.w3.org/2000/svg" width="24" height="24" viewBox="0 0 24 24"> <title>ic_next_hop_diagram</title>
<path class="st0" d="M8,7h8.183716c0.47534,1.337092,1.857351,2.244134,3.416134,1.941577
		c1.176954-0.228444,2.133965-1.198104,2.348692-2.377637C22.295328,4.658972,20.841417,3,19,3
		c-1.304321,0-2.403015,0.837463-2.816284,2H8V3H2v6h6V7z M6,7H4V5h2V7z"/>
	<path class="st0" d="M18.958374,15c-1.304321,0-2.403015,0.837463-2.816284,2H8v-2H2v6h6v-2h8.14209
		c0.47534,1.337091,1.857351,2.244135,3.416134,1.941578c1.176954-0.228445,2.133965-1.198105,2.348692-2.377638
		C22.253702,16.658972,20.799791,15,18.958374,15z M18.913471,18.966681c-0.551392,0-1-0.448608-1-1s0.448608-1,1-1s1,0.448608,1,1
		S19.464863,18.966681,18.913471,18.966681z" fill="#000001"/>

</svg>
