<svg xmlns="http://www.w3.org/2000/svg" width="24" height="24" viewBox="0 0 24 24"><title>ic_not_reachable</title><g id="Icons"><path d="M11.07,15.34,8.95,17.46l2.12,2.12L9.66,21,7.54,18.88,5.41,21,4,19.59l2.12-2.12L4,15.34l1.41-1.41,2.12,2.12,2.12-2.12ZM10.5,9H13v1.6H2V9H4.5A1.48,1.48,0,0,1,3,7.55V3.45A1.48,1.48,0,0,1,4.5,2h6A1.48,1.48,0,0,1,12,3.45V7.55A1.48,1.48,0,0,1,10.5,9Zm-6-1.5h6v-4h-6ZM19,17H17v2h2Zm3-2v6a1,1,0,0,1-1,1H15a1,1,0,0,1-1-1V15a1,1,0,0,1,1-1h6A1,1,0,0,1,22,15Zm-1.5.5h-5v5h5Z" fill="#000001"/></g></svg>