<?xml version="1.0" encoding="utf-8"?>
<!-- Generator: Adobe Illustrator 21.1.0, SVG Export Plug-In . SVG Version: 6.00 Build 0)  -->
<svg version="1.1" id="Layer_1" xmlns="http://www.w3.org/2000/svg" xmlns:xlink="http://www.w3.org/1999/xlink" x="0px" y="0px"
	 width="24px" height="24px" viewBox="0 0 24 24" enable-background="new 0 0 24 24" xml:space="preserve">
<path fill="#000001" d="M23,12l-2.4-2.8l0.3-3.7l-3.6-0.8l-1.9-3.2L12,3L8.6,1.5L6.7,4.7L3.1,5.5l0.3,3.7L1,12l2.4,2.8l-0.3,3.7
	l3.6,0.8l1.9,3.2L12,21l3.4,1.5l1.9-3.2l3.6-0.8l-0.3-3.7L23,12z M11,16.5L6.5,12l1.4-1.4l3.1,3.1l5.6-5.6L18,9.5L11,16.5z"/>
</svg>
