<?xml version="1.0" encoding="utf-8"?>
<!-- Generator: Adobe Illustrator 21.1.0, SVG Export Plug-In . SVG Version: 6.00 Build 0)  -->
<svg version="1.1" id="Layer_1" xmlns="http://www.w3.org/2000/svg" xmlns:xlink="http://www.w3.org/1999/xlink" x="0px" y="0px"
	 width="24px" height="24px" viewBox="0 0 24 24" enable-background="new 0 0 24 24" xml:space="preserve">
<title>ic_Pathfinder</title>
<path fill="#000001" d="M17,16v2H7v-2H1v6h6v-2h10v2h6v-6H17z M12,6.4c1.4,0,2.5,1.1,2.5,2.6s-1.1,2.5-2.5,2.5S9.4,10.4,9.4,9
	S10.6,6.4,12,6.4L12,6.4 M6.3,9.6H5V8.4h1.3c0.3-2.7,2.4-4.8,5.1-5.1V2h1.3v1.3c2.7,0.3,4.8,2.4,5.1,5.1H19v1.3h-1.3
	c-0.3,2.7-2.4,4.8-5.1,5.1V16h-1.3v-1.3C8.7,14.4,6.6,12.3,6.3,9.6 M12,4.6c-2.5,0-4.4,2-4.4,4.4s2,4.4,4.4,4.4s4.4-2,4.4-4.4
	S14.5,4.6,12,4.6L12,4.6z"/>
</svg>
