<svg id="Icons" xmlns="http://www.w3.org/2000/svg" width="24" height="24" viewBox="0 0 24 24"><title>ic_publish</title><path d="M13.05,20.5H4A.49.49,0,0,1,3.5,20V8.62h0V4A.49.49,0,0,1,4,3.5H16a.49.49,0,0,1,.49.5v8.1a6.05,6.05,0,0,1,1.06-.1L18,12V8h0V4a2,2,0,0,0-2-2H4A2,2,0,0,0,2,4V8H2V20a2,2,0,0,0,2,2H14.58A5.33,5.33,0,0,1,13.05,20.5Z"/><polygon points="12.5 10 5 10 5 12 12.5 12 12.5 10 12.5 10"/><polygon points="15 6 5 6 5 8 15 8 15 6 15 6"/><path d="M17.56,13A4.45,4.45,0,1,0,22,17.44,4.44,4.44,0,0,0,17.56,13ZM17,20.06,14.5,17.58l1.07-1.08L17,17.9l2.56-2.56,1.09,1.07Z"/></svg>