<svg xmlns="http://www.w3.org/2000/svg" width="24" height="24" viewBox="0 0 24 24"> <title>ic_partially_steered</title>
<path class="st0" d="M10.5351,8.46612C8.582498,6.51348,5.416672,6.513449,3.464032,8.466052s-1.95267,5.118427-0.000068,7.071068
	s5.118427,1.95267,7.071068,0.000068c0.000023-0.000023,0.000045-0.000045,0.000068-0.000068
	C12.487638,13.58449,12.487638,10.41875,10.5351,8.46612z M9.12085,14.123c-1.172347,1.169673-3.070263,1.169673-4.24261,0
	l4.24261-4.24263C10.290596,11.052694,10.290596,12.950676,9.12085,14.123z"/>
<polygon class="st1" points="13.986,13.007 18.533001,13.007 16.533001,15.007 17.783001,16.247 22.023001,12.007 17.773001,7.757 
	16.533001,9.007 18.533001,11.007 13.986,11.007 "/>
</svg>
