<svg id="Icons" xmlns="http://www.w3.org/2000/svg" width="24" height="24" viewBox="0 0 24 24"><title>ic_public_view</title><path d="M12.07,13.27c-2,0-6,1-6,3V18.4h12V16.26C18.06,14.27,14.07,13.27,12.07,13.27Z" fill="#000001"/><circle cx="12.07" cy="8.99" r="2.57" fill="#000001"/><path d="M18.54,13.36a2.9,2.9,0,0,1,1,2.17v1.61H22V15.53C22,14.33,20.08,13.61,18.54,13.36Z" fill="#000001"/><circle cx="17.48" cy="10.04" r="1.94" fill="#000001"/><path d="M2,15.53v1.61H4.52V15.53a2.9,2.9,0,0,1,1.05-2.18C4,13.57,2,14.3,2,15.53Z" fill="#000001"/><circle cx="6.52" cy="10.04" r="1.94" fill="#000001"/></svg>