<svg id="Icons" xmlns="http://www.w3.org/2000/svg" width="24" height="24" viewBox="0 0 24 24"><title>ic_private_view</title><path d="M10.5,13.37c-2.16,0-6.5,1.1-6.5,3.29V19H17V16.65C17,14.46,12.66,13.37,10.5,13.37Z" fill="#000001"/><circle cx="10.54" cy="8.82" r="2.82" fill="#000001"/><path d="M21.33,6.33H21V5.67a1.67,1.67,0,0,0-3.33,0v.67h-.33a.67.67,0,0,0-.67.67v3.33a.67.67,0,0,0,.67.67h4a.67.67,0,0,0,.67-.67V7A.67.67,0,0,0,21.33,6.33Zm-2,3A.67.67,0,1,1,20,8.67.67.67,0,0,1,19.33,9.33Zm1-3h-2V5.67a1,1,0,1,1,2,0Z" fill="#000001"/></svg>