<svg id="Icons" xmlns="http://www.w3.org/2000/svg" width="24" height="24" viewBox="0 0 24 24"><title>ic_show_encrypted_value</title><path id="Show_Encrypted_Value" data-name="ShowEncrypted Value" d="M14.7,12.5A2.7,2.7,0,0,1,12,15.1a2.6,2.6,0,1,1,0-5.2h0A2.7,2.7,0,0,1,14.7,12.5Zm7.3,0A10.8,10.8,0,0,1,12,19,10.8,10.8,0,0,1,2,12.5,10.8,10.8,0,0,1,12,6,10.8,10.8,0,0,1,22,12.5Zm-5.5,0A4.4,4.4,0,0,0,12,8.2h0a4.4,4.4,0,0,0-4.5,4.3h0A4.4,4.4,0,0,0,12,16.8h0a4.4,4.4,0,0,0,4.5-4.3Z" fill="#000001"/></svg>