<svg xmlns="http://www.w3.org/2000/svg" width="24" height="24" viewBox="0 0 24 24"><title>ic_steering</title><g id="Icons"><path d="M5.33,12.67A3.33,3.33,0,1,0,8.67,16,3.33,3.33,0,0,0,5.33,12.67Zm0,4.7A1.37,1.37,0,1,1,6.7,16,1.37,1.37,0,0,1,5.33,17.37ZM22,16a3.33,3.33,0,1,1-3.33-3.33A3.33,3.33,0,0,1,22,16Zm-9.42,0a.61.61,0,1,1-.61-.61A.61.61,0,0,1,12.58,16Zm2,0a.61.61,0,1,1-.61-.61A.61.61,0,0,1,14.62,16Zm-4.13,0a.61.61,0,1,1-.61-.61A.61.61,0,0,1,10.49,16Z" fill="#000001"/><path d="M16.52,8A8.32,8.32,0,0,0,4.44,9.26,1,1,0,0,1,2.85,8.05,10.31,10.31,0,0,1,18,6.65V4h2v6H14V8Z" fill="#000001"/></g></svg>