<svg id="Icons" xmlns="http://www.w3.org/2000/svg" width="24" height="24" viewBox="0 0 24 24"><title>ic_scale_in</title><rect x="5" y="9" width="2" height="2" fill="#000001"/><rect x="5" y="13" width="2" height="2" fill="#000001"/><path d="M7,5A2,2,0,0,0,5,7H7Z" fill="#000001"/><rect x="9" y="17" width="2" height="2" fill="#000001"/><path d="M17,5V7h2A2,2,0,0,0,17,5Z" fill="#000001"/><rect x="9" y="5" width="2" height="2" fill="#000001"/><path d="M7,19V17H5A2,2,0,0,0,7,19Z" fill="#000001"/><rect x="17" y="13" width="2" height="2" fill="#000001"/><rect x="17" y="9" width="2" height="2" fill="#000001"/><path d="M17,19a2,2,0,0,0,2-2H17Z" fill="#000001"/><rect x="13" y="5" width="2" height="2" fill="#000001"/><rect x="13" y="17" width="2" height="2" fill="#000001"/><polygon points="16 13 13 13 13 16 11 16 11 13 8 13 8 11 11 11 11 8 13 8 13 11 16 11 16 13" fill="#000001"/><path d="M2,4V20a2,2,0,0,0,2,2H20a2,2,0,0,0,2-2V4a2,2,0,0,0-2-2H4A2,2,0,0,0,2,4ZM20,20H4V4H20Z" fill="#000001"/></svg>