<?xml version="1.0" encoding="utf-8"?>
<!-- Generator: Adobe Illustrator 21.1.0, SVG Export Plug-In . SVG Version: 6.00 Build 0)  -->
<svg version="1.1" id="Layer_1" xmlns="http://www.w3.org/2000/svg" xmlns:xlink="http://www.w3.org/1999/xlink" x="0px" y="0px"
	 width="24px" height="24px" viewBox="0 0 24 24" style="enable-background:new 0 0 24 24;" xml:space="preserve">
<style type="text/css">
	.st0{fill:#000001;}
</style>
<path class="st0" d="M10,6.3v-2c-0.8,0.2-1.6,0.5-2.2,1l1.5,1.5C9.5,6.6,9.7,6.4,10,6.3z M2.9,5.4l2.4,2.4C4.4,9,4,10.4,4,12
	c0,2.2,0.9,4.2,2.4,5.6L4,20h6v-6l-2.2,2.2C6.7,15.1,6,13.7,6,12c0-1,0.2-1.9,0.7-2.8l8.1,8.1c-0.2,0.1-0.5,0.2-0.8,0.3v2.1
	c0.8-0.2,1.6-0.5,2.2-1l2.4,2.4l1.3-1.3L4.1,4.1L2.9,5.4z M20,4h-6v6l2.2-2.2C17.3,8.9,18,10.3,18,12c0,1-0.2,1.9-0.7,2.8l1.5,1.5
	C19.5,15,20,13.6,20,12c0-2.2-0.9-4.2-2.4-5.6L20,4z"/>
</svg>
