<svg id="Icons" xmlns="http://www.w3.org/2000/svg" width="24" height="24" viewBox="0 0 24 24"><title>ic_status_up</title>

<path d="M19.678925,5.266581c-0.213989-0.256409-0.441589-0.500671-0.67981-0.734375
	c-1.804382-1.770386-4.27356-2.86554-6.999084-2.86554c-5.52002,0-10,4.47998-10,10c0,2.725586,1.095154,5.194762,2.86554,6.999145
	c0.233704,0.23822,0.477966,0.46582,0.734375,0.67981c1.734863,1.447754,3.965515,2.321045,6.400085,2.321045
	c5.519958,0,9.999939-4.47998,9.999939-9.999999C21.999969,9.232097,21.126678,7.001444,19.678925,5.266581z M17.611786,12.875896
	L13,8.115642V18h-2V8.115642l-4.611786,4.751709l-1.200684-1.200684l6.8125-6.8125l6.812439,6.8125L17.611786,12.875896z" fill="#000001"/>
</svg>
