<svg xmlns="http://www.w3.org/2000/svg" width="24" height="24" viewBox="0 0 24 24"><title>ic_steering_remove</title><g id="Icons"><path d="M5.33,13.33a3.33,3.33,0,1,0,3.33,3.33A3.33,3.33,0,0,0,5.33,13.33Zm0,4.7A1.37,1.37,0,1,1,6.7,16.67,1.37,1.37,0,0,1,5.33,18ZM22,16.67a3.33,3.33,0,1,1-3.33-3.33A3.33,3.33,0,0,1,22,16.67Zm-9.42,0a.61.61,0,1,1-.61-.61A.61.61,0,0,1,12.58,16.67Zm2,0a.61.61,0,1,1-.61-.61A.61.61,0,0,1,14.62,16.67Zm-4.13,0a.61.61,0,1,1-.61-.61A.61.61,0,0,1,10.49,16.67Z" fill="#000001"/><polygon points="13.44 7.04 17.02 10.62 15.6 12.04 12.03 8.46 8.34 12.15 6.93 10.73 10.61 7.04 6.98 3.41 8.4 2 12.03 5.63 15.66 2 17.07 3.41 13.44 7.04" fill="#000001"/><path d="M5.44,10.6A1,1,0,1,1,3.85,9.39,10.29,10.29,0,0,1,8.22,6.07l1,1L7.69,8.56A8.43,8.43,0,0,0,5.44,10.6Z" fill="#000001"/><path d="M20,10.8a1,1,0,0,1-1.4-.19,8.42,8.42,0,0,0-2.29-2.07L14.86,7l1-1a10.29,10.29,0,0,1,4.38,3.33A1,1,0,0,1,20,10.8Z" fill="#000001"/></g></svg>