<svg id="Icons" xmlns="http://www.w3.org/2000/svg" width="24" height="24" viewBox="0 0 24 24"><title>ic_status_down</title>

<path d="M4.321075,18.066751c0.213989,0.256409,0.441589,0.500671,0.67981,0.734375
	c1.804382,1.770386,4.27356,2.86554,6.999084,2.86554c5.52002,0,10-4.47998,10-9.999999
	c0-2.725586-1.095154-5.194764-2.86554-6.999146c-0.233704-0.23822-0.477966-0.46582-0.734375-0.679809
	c-1.734863-1.447754-3.965515-2.321045-6.400085-2.321045c-5.519958,0-9.999939,4.47998-9.999939,10
	C2.000031,14.101237,2.873322,16.331888,4.321075,18.066751z M6.388214,10.457438L11,15.217692V5.333333h2v9.884359
	l4.611786-4.751709l1.200684,1.200684l-6.8125,6.812499l-6.812439-6.812499L6.388214,10.457438z" fill="#000001"/>
</svg>
