<svg id="Icons" xmlns="http://www.w3.org/2000/svg" width="24" height="24" viewBox="0 0 24 24"><title>ic_status_unknown</title>
<path d="M19.000031,3h-14c-1.104614,0-2,0.895386-2,2v14c0,1.104553,0.895386,2,2,2h14c1.104553,0,2-0.895447,2-2V5
	C21.000031,3.895386,20.104584,3,19.000031,3z M13.000031,19h-2v-2h2V19z M15.070038,11.25l-0.899963,0.919983
	C13.450043,12.899963,13.000031,13.5,13.000031,15h-2v-0.5c0-1.100037,0.450012-2.100037,1.170044-2.830017l1.23999-1.26001
	C13.78006,10.049988,14.000031,9.549988,14.000031,9c0-1.100037-0.899963-2-2-2c-1.099976,0-2,0.899963-2,2h-2
	c0-2.210022,1.790039-4,4-4c2.210022,0,4,1.789978,4,4C16.000031,9.880005,15.640045,10.679993,15.070038,11.25z" fill="#000001"/>
</svg>
