<svg id="Icons" xmlns="http://www.w3.org/2000/svg" width="24" height="24" viewBox="0 0 24 24"><title>ic_threshold_policy_info</title><path d="M11,6h2v8H11Zm0,11h2V15H11Zm11-5A10,10,0,1,1,12,2,10,10,0,0,1,22,12Zm-2,0a8,8,0,1,0-8,8A8,8,0,0,0,20,12ZM14.49,6.19v2.1a4.66,4.66,0,0,1,2,3.87,4.37,4.37,0,0,1-.16,1.16h0a4.9,4.9,0,0,1-.25.7h2a6.5,6.5,0,0,0-3.58-7.83Zm-8.86,6A6.5,6.5,0,0,0,5.91,14h2a4.9,4.9,0,0,1-.25-.7h0a4.37,4.37,0,0,1-.16-1.16,4.66,4.66,0,0,1,2-3.87V6.19A6.51,6.51,0,0,0,5.63,12.16Z" fill="#000001"/></svg>