<svg xmlns="http://www.w3.org/2000/svg" width="24px" height="24px" viewBox="0 0 24 24">
<title>ic_thermometer</title>
<g>
	<rect x="15" y="3" class="st0" width="6" height="2"/>
	<rect x="15" y="7" class="st0" width="3" height="2"/>
	<rect x="15" y="11" class="st0" width="6" height="2"/>
	<path class="st0" d="M13,5.2937c0-2.2056-1.7944-4-4-4s-4,1.7944-4,4v8.4251c-1.2753,1.5082-1.6309,3.6507-0.7018,5.6882
		c0.5069,1.1117,1.4438,2.0046,2.5778,2.4598c3.7563,1.5081,7.3486-1.2352,7.3486-4.8018c0-1.2413-0.4368-2.4147-1.2245-3.3463
		V5.2937z M11.9034,18.9017c-0.2808,0.5846-0.7695,1.0651-1.3577,1.3385C8.104,21.3754,5.718,19.6229,5.718,17.313
		c0-1.056,0.5074-1.985,1.282-2.5854V4.9883c0-1.1,0.9-2,2-2c1.1,0,2,0.9,2,2v9.7394
		C12.1471,15.6166,12.7082,17.2265,11.9034,18.9017z"/>
	<path class="st0" d="M9.9897,15.6733V11h-2v4.6731c-0.5954,0.3464-1.0002,0.9843-1.0002,1.7227c0,1.1046,0.8954,2,2,2
		c1.1046,0,2-0.8954,2-2C10.9896,16.6575,10.5849,16.0197,9.9897,15.6733z" fill="#000001"/>
</g>
</svg>
