<svg xmlns="http://www.w3.org/2000/svg" width="24" height="24" viewBox="0 0 24 24"><title>ic_unhealthy_objects_%</title><g id="Icons"><path d="M6.23,5.32A1.92,1.92,0,0,0,5.9,6.51c0,1.35.73,1.63,1.34,1.63a1.19,1.19,0,0,0,1-.45,1.94,1.94,0,0,0,.32-1.18,1.93,1.93,0,0,0-.32-1.19,1.18,1.18,0,0,0-1-.45A1.2,1.2,0,0,0,6.23,5.32ZM7.59,6.51a1.28,1.28,0,0,1-.11.61.25.25,0,0,1-.24.14c-.1,0-.37,0-.37-.75s.27-.75.37-.75S7.59,5.76,7.59,6.51Zm-4-.63a1.19,1.19,0,0,0,1-.45,1.92,1.92,0,0,0,.32-1.18,1.94,1.94,0,0,0-.32-1.19,1.19,1.19,0,0,0-1-.45,1.2,1.2,0,0,0-1,.45,1.92,1.92,0,0,0-.33,1.19C2.25,5.59,3,5.87,3.59,5.87Zm0-2.38c.09,0,.35,0,.35.75a1.27,1.27,0,0,1-.11.61A.25.25,0,0,1,3.59,5c-.1,0-.37,0-.37-.75S3.49,3.5,3.59,3.5ZM3.4,8,6.29,2.7H7.42L4.53,8ZM22,14.36a1.67,1.67,0,0,1-3.13.84H16.76l-2,2.62-1.65-5-2.78,8.29L7.82,14.36l-.28.84H5.13a1.68,1.68,0,1,1,0-1.68h1.2l1.4-4.2,2.52,6.73,2.89-8.61,2.23,6.82.56-.74h2.94a1.67,1.67,0,0,1,3.13.84Z" fill="#000001"/></g></svg>