<svg xmlns="http://www.w3.org/2000/svg" width="24" height="24" viewBox="0 0 24 24"><title>ic_unhealthy_objects_#</title><g id="Icons"><path d="M2.6,6.34,2.12,7.41h1.3L3.09,9H4.21l.33-1.63h.81L5,9H6.16L6.5,7.41H7.75l.54-1.07H6.72l.18-.88H8.08l.48-1.07H7.12l.33-1.63H6.33L6,4.39H5.16L5.5,2.77H4.4L4.06,4.39H2.94L2.4,5.46H3.83l-.18.88Zm2.34-.88h.82l-.18.88H4.76ZM22,14.52a1.67,1.67,0,0,1-3.13.84H16.76l-2,2.62-1.65-5-2.78,8.29L7.82,14.52l-.28.84H5.13a1.68,1.68,0,1,1,0-1.68h1.2l1.4-4.2,2.52,6.73L13.14,7.6l2.23,6.82.56-.74h2.94a1.67,1.67,0,0,1,3.13.84Z" fill="#000001"/></g></svg>