<svg id="Icons" xmlns="http://www.w3.org/2000/svg" width="24" height="24" viewBox="0 0 24 24"><title>ic_vnfcs_status</title><path d="M19.08,15.89a3.68,3.68,0,0,0-.94-.73,1.56,1.56,0,0,0-1.49-1.4c-.05-.09-.11-.18-.17-.27a5.16,5.16,0,0,0-1.29-1.4,5.26,5.26,0,0,0-1.76-.86,5.31,5.31,0,0,0-2.8,0,5.24,5.24,0,0,0-1.78.86,5.18,5.18,0,0,0-1.31,1.44h0a4.28,4.28,0,0,0-2.71,1.69l-.35.56A4.14,4.14,0,0,0,4,17.7,4.2,4.2,0,0,0,8.16,22h8a4,4,0,0,0,2.77-1.12h0a3.51,3.51,0,0,0,.12-5ZM11,20H8V18h3ZM15.71,7.83,14.53,9A4.16,4.16,0,0,0,8.66,9L7.49,7.83A5.82,5.82,0,0,1,15.71,7.83Zm2.27-3L16.81,6A7.48,7.48,0,0,0,6.23,6L5.06,4.83A9.14,9.14,0,0,1,18,4.83Z" fill="#000001"/></svg>