<svg id="Icons" xmlns="http://www.w3.org/2000/svg" width="24" height="24" viewBox="0 0 24 24"><title>ic_vnfcs_down</title><path d="M16,13H14v6H12l3,3,3-3H16Zm4-5.26a4.37,4.37,0,0,0-1.12-.86,1.85,1.85,0,0,0-1.77-1.66c-.06-.11-.13-.21-.2-.32a6.12,6.12,0,0,0-1.53-1.66,6.24,6.24,0,0,0-2.09-1,6.3,6.3,0,0,0-3.33,0,6.22,6.22,0,0,0-2.11,1A6.14,6.14,0,0,0,6.3,4.91l0,.06A5.08,5.08,0,0,0,3,7l-.41.66A4.91,4.91,0,0,0,2.06,9.9a5.07,5.07,0,0,0,5.12,5l4.06,0h.33V10.65h6.52v4h.06a4.46,4.46,0,0,0,1.67-1A4.16,4.16,0,0,0,20,7.74ZM10,13H7V11h3Z" fill="#000001"/></svg>