<svg xmlns="http://www.w3.org/2000/svg" width="24" height="24" viewBox="0 0 24 24"><title>ic_vcpu</title><g id="Icons"><path d="M13.67,12H12V7h5v5Zm0-1.67h1.67V8.67H13.67ZM22,8.67V7H20.33V5.33a1.67,1.67,0,0,0-1.67-1.67H17V2H15.33V3.67H13.67V2H12V3.67H10.33A1.67,1.67,0,0,0,8.67,5.33V7H7V8.67H8.67v1.67h1.67v-5h8.33v8.33H15.33V17H17V15.33h1.67a1.67,1.67,0,0,0,1.67-1.67V12H22V10.33H20.33V8.67Z" fill="#000001"/><path d="M15.33,19.22A2.78,2.78,0,0,1,12.56,22H5.33A3.34,3.34,0,0,1,2,18.67a3,3,0,0,1,3-3,4.16,4.16,0,0,1,7.78,1.11A2.49,2.49,0,0,1,15.33,19.22Z" fill="#000001"/></g></svg>