<svg xmlns="http://www.w3.org/2000/svg" width="24" height="24" viewBox="0 0 24 24"><title>ic_virtual_site_locked</title><g id="Icons"><path d="M15,19.28A2.72,2.72,0,0,1,12.33,22H5.26a3.26,3.26,0,0,1-.35-6.5,4.07,4.07,0,0,1,7.61,1.09A2.7,2.7,0,0,1,15,19.28ZM22,3.74V7.22h-.87V10.7H22v3.48H20.26v1.74H16.78V15H13.84a5.84,5.84,0,0,0-5.32-3.48l-.43,0v-.9H9V7.22H8.09V3.74H9.83V2H13.3v.87h3.48V2h3.48V3.74Zm-6.55,5.1a.86.86,0,0,0,.46-.76.87.87,0,0,0-1.74,0,.86.86,0,0,0,.46.76l-.46,1.85h1.74Z" fill="#000001"/></g></svg>