<svg xmlns="http://www.w3.org/2000/svg" width="24" height="24" viewBox="0 0 24 24"><title>ic_virtual_object_infrastructure</title><g id="Icons"><path d="M14.17,18.46A2.54,2.54,0,0,1,11.64,21H5a3,3,0,0,1-3-3,2.77,2.77,0,0,1,2.71-2.73,3.8,3.8,0,0,1,7.1,1A2.27,2.27,0,0,1,14.17,18.46ZM20.26,2.74H8.09A1.74,1.74,0,0,0,6.35,4.48v7.24a5.54,5.54,0,0,1,1.74-.29v-7H20.26V16.65H15.48a3.89,3.89,0,0,1,.43,1.74h4.35A1.74,1.74,0,0,0,22,16.65V4.48A1.74,1.74,0,0,0,20.26,2.74Zm-10.43,9V6.22h8.7v8.7H13.59a4.44,4.44,0,0,0-.43-.18A5.56,5.56,0,0,0,9.83,11.72Zm3.48-.29H15V7.09H13.3Zm0,2.61H15V12.3H13.3Z" fill="#000001"/></g></svg>