<svg id="Icons" xmlns="http://www.w3.org/2000/svg" width="24" height="24" viewBox="0 0 24 24"><title>ic_wifi_interference</title><path id="Wifi_Interference" data-name="Wifi Interference" d="M7,12.3a7.1,7.1,0,0,1-2.1,5L3.5,15.8A5.1,5.1,0,0,0,5,12.3,5.1,5.1,0,0,0,3.5,8.7L4.9,7.3A7.1,7.1,0,0,1,7,12.3ZM6.4,5.9a9,9,0,0,1,0,12.7L7.8,20a11,11,0,0,0,0-15.5ZM20.5,8.7,19.1,7.3a7.1,7.1,0,0,0,0,10l1.4-1.4a5,5,0,0,1,0-7.07l0,0ZM17.6,5.9,16.2,4.5a11,11,0,0,0,0,15.5l1.4-1.4A9,9,0,0,1,17.6,5.9Z" fill="#000001"/></svg>