<svg id="Icons" xmlns="http://www.w3.org/2000/svg" width="24" height="24" viewBox="0 0 24 24"><title>ic_wifi_connected_equipment</title><path id="Wifi_Connected_Equipment" data-name="Wifi ConnectedEquipment" d="M7.05,8.1l1.4,1.4a5,5,0,0,1,7.07,0l0,0,1.4-1.4a7.1,7.1,0,0,0-10,0Zm5-6.1a11,11,0,0,0-7.8,3.2l1.4,1.4a9,9,0,0,1,12.7,0l1.4-1.4A11,11,0,0,0,12.05,2ZM15,11H9.15A1.1,1.1,0,0,0,8,12.1H8v8.7A1.1,1.1,0,0,0,9,22h5.8a1.1,1.1,0,0,0,1.1-1.1h0V12.2A1.1,1.1,0,0,0,15,11h0Zm.1,9h-6V13h6Z" fill="#000001"/></svg>