<svg id="ff40320b-ae8c-4099-b476-f6cb9746e7a5" data-name="SVG" xmlns="http://www.w3.org/2000/svg" width="56" height="56" viewBox="0 0 56 56"><defs><style>.\36 ce2e635-b493-414a-946c-a184e81bc4e0{fill:#42a5f5;}.\33 43da90b-2280-4737-935f-f82cb41f2e57,.\39 30e566f-a5ec-4177-af2c-a300756d873d{fill:#fff;}.\39 30e566f-a5ec-4177-af2c-a300756d873d{opacity:0.35;}</style></defs><title>app-ic_netact_cp_ms_56dp</title><rect class="6ce2e635-b493-414a-946c-a184e81bc4e0" width="56" height="56" rx="12" ry="12"/><path class="930e566f-a5ec-4177-af2c-a300756d873d" d="M49.39,26.92a4.5,4.5,0,0,0-5.2-2.06L41,19.38a9,9,0,0,1-1.64,1.38l3,5.15a4.52,4.52,0,1,0,7,1Zm-1.58,2.89a2.34,2.34,0,0,1-1.12,1.47,2.42,2.42,0,0,1-3.56-2.72,2.44,2.44,0,0,1,2.34-1.8,2.72,2.72,0,0,1,.63.08,2.42,2.42,0,0,1,1.71,3Zm-13.28-9.2a7.31,7.31,0,1,0-7.31-7.3A7.31,7.31,0,0,0,34.53,20.61Zm0-12.48a5.18,5.18,0,1,1-5.18,5.18A5.19,5.19,0,0,1,34.53,8.13ZM29.62,20.74l-3,5.17a4.53,4.53,0,0,1,1.16,4.79c-.16,0-.31,0-.47.06l-2.15.2a2.81,2.81,0,0,0,.46-.56,2.42,2.42,0,0,0-.89-3.31,2.37,2.37,0,0,0-1.21-.33,2.72,2.72,0,0,0-.63.08A2.39,2.39,0,0,0,21.43,28a2.42,2.42,0,0,0-.25,1.84,2.46,2.46,0,0,0,.91,1.32,2.19,2.19,0,0,0-.63-.1H19.41a4.5,4.5,0,0,1,5.4-6.17L28,19.35A9.43,9.43,0,0,0,29.62,20.74ZM39,35.47A4.52,4.52,0,0,1,34.67,40h0l-.36-2.09h0l.19,0a2.42,2.42,0,0,0,2.42-2.43c0-2.42-3.54-3.84-4.29-4.1a4.42,4.42,0,0,1,.82-.29V22.15a9.48,9.48,0,0,0,1.08.07,8.74,8.74,0,0,0,1-.07v8.93A4.53,4.53,0,0,1,39,35.47Z"/><path class="343da90b-2280-4737-935f-f82cb41f2e57" d="M21.46,33.53V49h-2.8V38.59L15.3,45.24H13L9.82,38.86V49H7V33.53h3.22l4,8.32,4-8.32Zm5.81,8.61a7.83,7.83,0,0,1-1.4-.59,4.77,4.77,0,0,1-1.19-.88,4.36,4.36,0,0,1-.84-1.21,3.7,3.7,0,0,1-.31-1.55,4.43,4.43,0,0,1,1.39-3.46,5.65,5.65,0,0,1,3.95-1.27,10.38,10.38,0,0,1,2.74.35,7.24,7.24,0,0,1,2,.84l-1,2.33a9.89,9.89,0,0,0-1.34-.56,6.6,6.6,0,0,0-2.16-.32,4.56,4.56,0,0,0-.92.09,2.41,2.41,0,0,0-.79.3,1.55,1.55,0,0,0-.53.55,1.51,1.51,0,0,0-.2.82,1.92,1.92,0,0,0,.09.59,1.23,1.23,0,0,0,.33.53,2.4,2.4,0,0,0,.64.49,7.47,7.47,0,0,0,1.07.42l1.54.44a8.65,8.65,0,0,1,1.68.64,4.63,4.63,0,0,1,1.25.93A3.87,3.87,0,0,1,34,42.88a4.85,4.85,0,0,1,.27,1.68,4.4,4.4,0,0,1-1.45,3.56,6.19,6.19,0,0,1-4.11,1.23,10,10,0,0,1-1.89-.16,11.22,11.22,0,0,1-1.53-.4,9,9,0,0,1-1.16-.47c-.32-.16-.57-.3-.75-.4l1.21-2.44c.18.1.41.22.69.35a8.71,8.71,0,0,0,.94.38,10.34,10.34,0,0,0,1.16.29,7,7,0,0,0,1.33.12,4.7,4.7,0,0,0,.82-.07,2,2,0,0,0,.78-.3,1.86,1.86,0,0,0,.58-.57,1.8,1.8,0,0,0,.22-.93,1.88,1.88,0,0,0-.09-.57,1.64,1.64,0,0,0-.32-.55,2.91,2.91,0,0,0-.64-.5,4.45,4.45,0,0,0-1-.44Z"/></svg>