<svg id="5aa2a0a9-2c60-400c-a164-32c93455aba7" data-name="SVG" xmlns="http://www.w3.org/2000/svg" width="56" height="56" viewBox="0 0 56 56"><defs><style>.\37 c392a45-f984-4cd3-bb4a-23065a23c221{fill:#42a5f5;}.e2a5d53f-fd16-4d60-8077-0858ca96f14d,.ecb39299-29f7-41c1-832f-e62e0ef42a7f{fill:#fff;}.e2a5d53f-fd16-4d60-8077-0858ca96f14d{opacity:0.35;}</style></defs><title>app-ic_netact_cp_ed_56dp</title><rect class="7c392a45-f984-4cd3-bb4a-23065a23c221" width="56" height="56" rx="12" ry="12"/><path class="e2a5d53f-fd16-4d60-8077-0858ca96f14d" d="M49.39,26.92a4.5,4.5,0,0,0-5.2-2.06L41,19.38a9,9,0,0,1-1.64,1.38l3,5.15a4.52,4.52,0,1,0,7,1Zm-1.58,2.89a2.34,2.34,0,0,1-1.12,1.47,2.42,2.42,0,0,1-3.56-2.72,2.44,2.44,0,0,1,2.34-1.8,2.72,2.72,0,0,1,.63.08,2.42,2.42,0,0,1,1.71,3Zm-13.28-9.2a7.31,7.31,0,1,0-7.31-7.3A7.31,7.31,0,0,0,34.53,20.61Zm0-12.48a5.18,5.18,0,1,1-5.18,5.18A5.19,5.19,0,0,1,34.53,8.13ZM29.62,20.74l-3,5.17a4.51,4.51,0,0,1,.82,5.54l-.06.09A11.48,11.48,0,0,0,25,31.08a2.47,2.47,0,0,0,.6-.68,2.42,2.42,0,0,0-.89-3.31,2.37,2.37,0,0,0-1.21-.33,2.72,2.72,0,0,0-.63.08A2.39,2.39,0,0,0,21.43,28a2.42,2.42,0,0,0-.25,1.84A2.46,2.46,0,0,0,22,31H19.41a4.5,4.5,0,0,1,5.4-6.17L28,19.35A9.43,9.43,0,0,0,29.62,20.74ZM39,35.47A4.53,4.53,0,0,1,34.5,40a4.4,4.4,0,0,1-.73-.07,12.38,12.38,0,0,0-.45-2.35,2.37,2.37,0,0,0,1.18.32A2.43,2.43,0,1,0,32.12,35a9.73,9.73,0,0,0-.77-1,9.33,9.33,0,0,0-.79-.75,4.57,4.57,0,0,1,2.89-2.17V22.15a9.48,9.48,0,0,0,1.08.07,8.74,8.74,0,0,0,1-.07v8.93A4.53,4.53,0,0,1,39,35.47Z"/><path class="ecb39299-29f7-41c1-832f-e62e0ef42a7f" d="M7,33.53h9.64v2.73H10.11v3.37h5v2.73h-5v3.91h6.78V49H7Zm17.25,0a8.84,8.84,0,0,1,3.32.57,6.06,6.06,0,0,1,2.33,1.58,6.59,6.59,0,0,1,1.39,2.44,10.13,10.13,0,0,1,.46,3.16,10.33,10.33,0,0,1-.46,3.19,6.49,6.49,0,0,1-1.4,2.43,6.23,6.23,0,0,1-2.34,1.55,9,9,0,0,1-3.3.55H18.91V33.53Zm0,12.83A4.3,4.3,0,0,0,26.07,46a3.66,3.66,0,0,0,1.35-1,4.8,4.8,0,0,0,.85-1.62,6.79,6.79,0,0,0,.3-2.08,5.45,5.45,0,0,0-1.17-3.84,4.08,4.08,0,0,0-3.12-1.25H22V46.36Z"/></svg>