<svg id="24e7b2c3-c1a3-4242-82c0-cbe69df71aaa" data-name="SVG" xmlns="http://www.w3.org/2000/svg" width="56" height="56" viewBox="0 0 56 56"><defs><style>.\37 f637abd-119b-4ff8-a767-7564856840d6{fill:#06bfa9;}.\32 0cf026c-8a15-46c3-8b93-e9f2e19e9c13,.\34 ba034f6-028a-496f-8735-06c67e7827ff{fill:#fff;}.\32 0cf026c-8a15-46c3-8b93-e9f2e19e9c13{opacity:0.35;}</style></defs><title>app-ic_netact_ad_dy_56dp</title><rect class="7f637abd-119b-4ff8-a767-7564856840d6" width="56" height="56" rx="12" ry="12"/><path class="20cf026c-8a15-46c3-8b93-e9f2e19e9c13" d="M39,22.05a5.19,5.19,0,1,0-5.19,5.19A5.2,5.2,0,0,0,39,22.05Zm-8.38,0a3.19,3.19,0,1,1,3.19,3.19A3.19,3.19,0,0,1,30.6,22.05Zm15.55,1.78L50,26.05l-4.65,8L41.5,31.86a12.42,12.42,0,0,1-3.07,1.78v4.44H32.32l1.12-2h3V32.22l.68-.23a10.43,10.43,0,0,0,3.62-2.09l.54-.48,3.35,1.94,2.65-4.58-3.35-1.93.15-.71a10.51,10.51,0,0,0,0-4.18l-.15-.71,3.35-1.93-2.65-4.57-3.35,1.93-.54-.48a10.43,10.43,0,0,0-3.62-2.09l-.68-.23V8H31.15v3.86l-.69.23a10.47,10.47,0,0,0-3.61,2.09l-.54.48L23,12.75l-2.65,4.57,3.34,1.93-.14.71a10.56,10.56,0,0,0,0,4.19l.14.7-3.34,1.93,2.49,4.3c-.12,0-.24,0-.37,0h-2l-2.88-5,3.85-2.22a11.85,11.85,0,0,1-.13-1.78,11.62,11.62,0,0,1,.13-1.77l-3.85-2.23,4.64-8,3.86,2.23a12.74,12.74,0,0,1,3.07-1.78V6h9.28v4.44a12.74,12.74,0,0,1,3.07,1.78L45.35,10l4.65,8-3.85,2.23a13.05,13.05,0,0,1,.13,1.77A13.32,13.32,0,0,1,46.15,23.83Z"/><path class="4ba034f6-028a-496f-8735-06c67e7827ff" d="M12.4,33.53a8.84,8.84,0,0,1,3.32.57,6.06,6.06,0,0,1,2.33,1.58,6.59,6.59,0,0,1,1.39,2.44,10.13,10.13,0,0,1,.46,3.16,10.33,10.33,0,0,1-.46,3.19A6.49,6.49,0,0,1,18,46.9a6.23,6.23,0,0,1-2.34,1.55,9,9,0,0,1-3.3.55H7V33.53Zm0,12.83A4.3,4.3,0,0,0,14.19,46a3.66,3.66,0,0,0,1.35-1,4.8,4.8,0,0,0,.85-1.62,6.79,6.79,0,0,0,.3-2.08,5.45,5.45,0,0,0-1.17-3.84,4.08,4.08,0,0,0-3.12-1.25H10.13V46.36Zm12.08-4.14-4.84-8.69h3.23l3.23,6,3.22-6h3.12l-4.86,8.69V49h-3.1Z"/></svg>