<svg id="98a1af87-1738-40c4-89de-0124e8ff271c" data-name="SVG" xmlns="http://www.w3.org/2000/svg" width="56" height="56" viewBox="0 0 56 56"><defs><style>.\32 fc632ba-5b1e-44c5-bd1a-ec1b2581b261{fill:#42a5f5;}.\35 3acd85b-47ec-4e7b-8e09-27da38be7c9d,.c6550d93-5c31-4d86-8785-bedb9932703c{fill:#fff;}.\35 3acd85b-47ec-4e7b-8e09-27da38be7c9d{opacity:0.35;}</style></defs><title>app-ic_netact_cp_as_56dp</title><rect class="2fc632ba-5b1e-44c5-bd1a-ec1b2581b261" width="56" height="56" rx="12" ry="12"/><path class="53acd85b-47ec-4e7b-8e09-27da38be7c9d" d="M49.39,26.92a4.5,4.5,0,0,0-5.2-2.06L41,19.38a9,9,0,0,1-1.64,1.38l3,5.15a4.52,4.52,0,1,0,7,1Zm-1.58,2.89a2.34,2.34,0,0,1-1.12,1.47,2.42,2.42,0,0,1-3.56-2.72,2.44,2.44,0,0,1,2.34-1.8,2.72,2.72,0,0,1,.63.08,2.42,2.42,0,0,1,1.71,3Zm-13.28-9.2a7.31,7.31,0,1,0-7.31-7.3A7.31,7.31,0,0,0,34.53,20.61Zm0-12.48a5.18,5.18,0,1,1-5.18,5.18A5.19,5.19,0,0,1,34.53,8.13ZM29.62,20.74l-3,5.17a4.51,4.51,0,0,1,1.12,4.88A14.17,14.17,0,0,0,26,30.68l-.59,0c.07-.09.15-.19.22-.3a2.42,2.42,0,0,0-.89-3.31,2.37,2.37,0,0,0-1.21-.33,2.72,2.72,0,0,0-.63.08A2.39,2.39,0,0,0,21.43,28a2.42,2.42,0,0,0-.25,1.84,2.39,2.39,0,0,0,1.13,1.47l.1,0a6.75,6.75,0,0,0-1.94,1.19,4.52,4.52,0,0,1,4.34-7.66L28,19.35A9.43,9.43,0,0,0,29.62,20.74ZM39,35.47a4.53,4.53,0,0,1-7.78,3.15,2.44,2.44,0,0,0,.73-.9l.45-1a2.42,2.42,0,1,0,.64-3.19,2.48,2.48,0,0,0-1-1.23c-.16-.1-.32-.2-.49-.29a4.49,4.49,0,0,1,1.82-.92V22.15a9.48,9.48,0,0,0,1.08.07,8.74,8.74,0,0,0,1-.07v8.93A4.53,4.53,0,0,1,39,35.47Z"/><path class="c6550d93-5c31-4d86-8785-bedb9932703c" d="M16.14,45.79H10.86L9.9,49H7L12.1,33.53h3.08l5,15.47h-3.1Zm-4.48-2.58h3.71l-1.82-6.09Zm13.17-1.07a7.74,7.74,0,0,1-1.39-.59,4.77,4.77,0,0,1-1.19-.88,4,4,0,0,1-.84-1.21,3.7,3.7,0,0,1-.32-1.55,4.44,4.44,0,0,1,1.4-3.46,5.65,5.65,0,0,1,4-1.27,10.44,10.44,0,0,1,2.74.35,7.24,7.24,0,0,1,2,.84l-1,2.33a10.13,10.13,0,0,0-1.35-.56,6.54,6.54,0,0,0-2.15-.32,4.66,4.66,0,0,0-.93.09,2.44,2.44,0,0,0-.78.3,1.58,1.58,0,0,0-.54.55,1.61,1.61,0,0,0-.19.82,1.91,1.91,0,0,0,.08.59,1.45,1.45,0,0,0,.33.53,2.46,2.46,0,0,0,.65.49,7,7,0,0,0,1.07.42l1.54.44a8.65,8.65,0,0,1,1.68.64,4.58,4.58,0,0,1,1.24.93,3.9,3.9,0,0,1,.79,1.26,4.85,4.85,0,0,1,.27,1.68,4.4,4.4,0,0,1-1.45,3.56,6.19,6.19,0,0,1-4.11,1.23,10.2,10.2,0,0,1-1.9-.16,12.06,12.06,0,0,1-1.53-.4,9.38,9.38,0,0,1-1.15-.47c-.32-.16-.57-.3-.75-.4l1.21-2.44c.18.1.4.22.68.35a9.88,9.88,0,0,0,.95.38A10.71,10.71,0,0,0,25,46.5a7.18,7.18,0,0,0,1.34.12,4.78,4.78,0,0,0,.82-.07,2,2,0,0,0,.78-.3,1.73,1.73,0,0,0,.57-.57,1.71,1.71,0,0,0,.22-.93,2.24,2.24,0,0,0-.08-.57,1.64,1.64,0,0,0-.32-.55,2.91,2.91,0,0,0-.64-.5,4.45,4.45,0,0,0-1-.44Z"/></svg>