<svg id="09e00b93-eea4-48ce-b366-b3f7d063521e" data-name="SVG" xmlns="http://www.w3.org/2000/svg" width="56" height="56" viewBox="0 0 56 56"><defs><style>.bd408f6e-2f05-43b9-ad53-fb91ed670fcd{fill:#124191;}.\38 a5a84ed-543d-4c06-b550-6ebd0f7e98bb,.ec677237-3ecf-4dcd-b68d-e66d2645e294{fill:#fff;}.ec677237-3ecf-4dcd-b68d-e66d2645e294{opacity:0.35;}</style></defs><title>app-ic_netact_se_um_56dp</title><rect class="bd408f6e-2f05-43b9-ad53-fb91ed670fcd" width="56" height="56" rx="12" ry="12"/><path class="ec677237-3ecf-4dcd-b68d-e66d2645e294" d="M36,21.2V31.51H34V21.2H25.54v-2H34V11.08h2V19.2h8.34v2ZM21,7V23.46A12.81,12.81,0,0,0,23.42,31H26a10.65,10.65,0,0,1-3-7.58V9H47V23.41c0,2.07-.17,8-8.82,11v2.09c7-2.21,10.68-6.57,10.82-13V7Z"/><path class="8a5a84ed-543d-4c06-b550-6ebd0f7e98bb" d="M13.09,49.35a8.14,8.14,0,0,1-2.85-.43,4.37,4.37,0,0,1-1.87-1.26,5,5,0,0,1-1-2.07A11.1,11.1,0,0,1,7,42.73v-9.2h3.1v8.91a11.25,11.25,0,0,0,.15,2,3.34,3.34,0,0,0,.51,1.32,2,2,0,0,0,.91.73,3.81,3.81,0,0,0,1.4.22,3.86,3.86,0,0,0,1.39-.22,2,2,0,0,0,.92-.73,3.52,3.52,0,0,0,.51-1.31,11.05,11.05,0,0,0,.15-2V33.53h3.1v9.22a11.56,11.56,0,0,1-.32,2.86,5,5,0,0,1-1,2.06,4.54,4.54,0,0,1-1.88,1.25A8.1,8.1,0,0,1,13.09,49.35Zm23-15.82V49H33.33V38.59L30,45.24H27.67l-3.19-6.38V49H21.69V33.53H24.9l4,8.32,4-8.32Z"/></svg>