<svg id="9928c663-807b-4381-ba52-5fd53ab606df" data-name="SVG" xmlns="http://www.w3.org/2000/svg" width="56" height="56" viewBox="0 0 56 56"><defs><style>.beff1f5d-1f98-4728-8df6-edea4711c326{fill:#06bfa9;}.\32 2a9b3df-e0b4-4b7d-b6f9-e4e27b3d18ae,.\34 67cf41a-0eea-4203-a990-9d49af85c1e4{fill:#fff;}.\34 67cf41a-0eea-4203-a990-9d49af85c1e4{opacity:0.35;}</style></defs><title>app-ic_netact_ad_sy_56dp</title><rect class="beff1f5d-1f98-4728-8df6-edea4711c326" width="56" height="56" rx="12" ry="12"/><path class="467cf41a-0eea-4203-a990-9d49af85c1e4" d="M39,22.05a5.19,5.19,0,1,0-5.19,5.19A5.2,5.2,0,0,0,39,22.05Zm-8.38,0a3.19,3.19,0,1,1,3.19,3.19A3.19,3.19,0,0,1,30.6,22.05Zm15.55,1.78L50,26.05l-4.65,8L41.5,31.86a12.42,12.42,0,0,1-3.07,1.78v4.44h-7l1.11-2h3.94V32.22l.69-.23a10.47,10.47,0,0,0,3.61-2.09l.54-.48,3.35,1.94,2.65-4.58-3.34-1.93.14-.7a10.56,10.56,0,0,0,0-4.19l-.14-.71,3.34-1.93-2.65-4.57-3.35,1.93-.54-.48a10.47,10.47,0,0,0-3.61-2.09l-.69-.23V8H31.15v3.86l-.69.23a10.47,10.47,0,0,0-3.61,2.09l-.54.48L23,12.75l-2.65,4.57,3.35,1.93-.15.71a10.51,10.51,0,0,0,0,4.18l.15.71-3.35,1.93L22.75,31H20.44l-2.86-4.95,3.85-2.22a11.85,11.85,0,0,1-.13-1.78,11.62,11.62,0,0,1,.13-1.77l-3.85-2.23,4.64-8,3.86,2.23a12.55,12.55,0,0,1,3.07-1.78V6h9.28v4.44a12.74,12.74,0,0,1,3.07,1.78L45.35,10l4.65,8-3.85,2.23a11.62,11.62,0,0,1,.13,1.77A11.85,11.85,0,0,1,46.15,23.83Z"/><path class="22a9b3df-e0b4-4b7d-b6f9-e4e27b3d18ae" d="M10.93,42.14a7.83,7.83,0,0,1-1.4-.59,5,5,0,0,1-1.19-.88,4.13,4.13,0,0,1-.83-1.21,3.55,3.55,0,0,1-.32-1.55,4.43,4.43,0,0,1,1.39-3.46,5.67,5.67,0,0,1,3.95-1.27,10.33,10.33,0,0,1,2.74.35,7.11,7.11,0,0,1,2,.84l-1,2.33a9.35,9.35,0,0,0-1.34-.56,6.56,6.56,0,0,0-2.16-.32,4.56,4.56,0,0,0-.92.09,2.27,2.27,0,0,0-.78.3,1.5,1.5,0,0,0-.54.55,1.61,1.61,0,0,0-.2.82,1.81,1.81,0,0,0,.09.58,1.41,1.41,0,0,0,.33.54,2.46,2.46,0,0,0,.65.49,6.86,6.86,0,0,0,1.06.42L14,40a9.46,9.46,0,0,1,1.69.65,4.74,4.74,0,0,1,1.24.93,3.71,3.71,0,0,1,.78,1.26A4.85,4.85,0,0,1,18,44.56a4.41,4.41,0,0,1-1.46,3.56,6.17,6.17,0,0,1-4.11,1.23,10,10,0,0,1-1.89-.16A12.06,12.06,0,0,1,9,48.79a9.58,9.58,0,0,1-1.16-.47c-.32-.16-.57-.3-.74-.4l1.21-2.44c.17.1.4.22.68.35a9.64,9.64,0,0,0,.94.38,10.91,10.91,0,0,0,1.16.29,7.07,7.07,0,0,0,1.33.12,4.89,4.89,0,0,0,.83-.07,2.18,2.18,0,0,0,.78-.3,1.94,1.94,0,0,0,.57-.57,1.83,1.83,0,0,0,.22-.93,1.88,1.88,0,0,0-.09-.57,1.49,1.49,0,0,0-.32-.55,3,3,0,0,0-.64-.51,5,5,0,0,0-1-.43Zm12.6.08-4.84-8.69h3.24l3.23,6,3.21-6H31.5l-4.86,8.69V49H23.53Z"/></svg>