<svg id="142af28e-2d58-4fd0-a231-a71901cf7fa1" data-name="SVG" xmlns="http://www.w3.org/2000/svg" width="56" height="56" viewBox="0 0 56 56"><defs><style>.b451230e-7481-491c-bbe5-7f0573c0ad78{fill:#42a5f5;}.\34 6065c25-b04d-4a60-b8b3-ec7d2022eb9b,.\39 1a91363-8814-42c3-bf10-63666ee3616c{fill:#fff;}.\34 6065c25-b04d-4a60-b8b3-ec7d2022eb9b{opacity:0.35;}</style></defs><title>app-ic_netact_cp_fa_56dp</title><rect class="b451230e-7481-491c-bbe5-7f0573c0ad78" width="56" height="56" rx="12" ry="12"/><path class="46065c25-b04d-4a60-b8b3-ec7d2022eb9b" d="M49.39,26.92a4.5,4.5,0,0,0-5.2-2.06L41,19.38a9,9,0,0,1-1.64,1.38l3,5.15a4.52,4.52,0,1,0,7,1Zm-1.58,2.89a2.34,2.34,0,0,1-1.12,1.47,2.42,2.42,0,0,1-3.56-2.72,2.44,2.44,0,0,1,2.34-1.8,2.72,2.72,0,0,1,.63.08,2.42,2.42,0,0,1,1.71,3ZM35.55,31.08V22.15a8.74,8.74,0,0,1-1,.07,9.48,9.48,0,0,1-1.08-.07v8.93a4.53,4.53,0,1,0,2.1,0Zm-1,6.82a2.43,2.43,0,1,1,2.42-2.43A2.42,2.42,0,0,1,34.5,37.9Zm0-17.29a7.31,7.31,0,1,0-7.31-7.3A7.31,7.31,0,0,0,34.53,20.61Zm0-12.48a5.18,5.18,0,1,1-5.18,5.18A5.19,5.19,0,0,1,34.53,8.13ZM29.62,20.74l-3,5.17A4.49,4.49,0,0,1,26,33l-.07-.21a2.52,2.52,0,0,0-1.25-1.46,2.34,2.34,0,0,0,.95-.9,2.42,2.42,0,0,0-.89-3.31,2.37,2.37,0,0,0-1.21-.33,2.72,2.72,0,0,0-.63.08A2.39,2.39,0,0,0,21.43,28a2.42,2.42,0,0,0-.25,1.84A2.46,2.46,0,0,0,22,31H19.41a4.5,4.5,0,0,1,5.4-6.17L28,19.35A9.43,9.43,0,0,0,29.62,20.74Z"/><path class="91a91363-8814-42c3-bf10-63666ee3616c" d="M7,33.53h9.53v2.73H10.11v3.37H15v2.73H10.11V49H7ZM25,45.79H19.68l-1,3.21H15.85l5.06-15.47H24L29,49h-3.1Zm-4.49-2.58h3.72l-1.82-6.09Z"/></svg>