<svg id="cbebb332-e2d0-480f-b16b-61d895181970" data-name="SVG" xmlns="http://www.w3.org/2000/svg" width="56" height="56" viewBox="0 0 56 56"><defs><style>.d695aed5-7f72-4111-a27d-904855d58158{fill:#06bfa9;}.\32 4ca6e86-88dd-4877-94f5-24d46cc58456,.\32 b478ac6-7e25-4ab8-815d-fbd8edff00ce{fill:#fff;}.\32 4ca6e86-88dd-4877-94f5-24d46cc58456{opacity:0.35;}</style></defs><title>app-ic_netact_ad_am_56dp</title><rect class="d695aed5-7f72-4111-a27d-904855d58158" width="56" height="56" rx="12" ry="12"/><path class="24ca6e86-88dd-4877-94f5-24d46cc58456" d="M33.79,16.86A5.19,5.19,0,1,0,39,22.05,5.2,5.2,0,0,0,33.79,16.86Zm0,8.38A3.19,3.19,0,1,1,37,22.05,3.19,3.19,0,0,1,33.79,25.24Zm12.36-1.41L50,26.05l-4.65,8L41.5,31.86a12.4,12.4,0,0,1-3,1.73l-.89-1.81a10.62,10.62,0,0,0,3.08-1.88l.54-.48,3.35,1.94,2.65-4.58-3.35-1.93.15-.71a10.51,10.51,0,0,0,0-4.18l-.15-.71,3.35-1.93-2.65-4.57-3.35,1.93-.54-.48a10.43,10.43,0,0,0-3.62-2.09l-.68-.23V8H31.15v3.86l-.69.23a10.47,10.47,0,0,0-3.61,2.09l-.54.48L23,12.75l-2.65,4.57,3.34,1.93-.14.71a10.56,10.56,0,0,0,0,4.19l.14.7-3.34,1.93L22.77,31H20.46l-2.88-5,3.85-2.22a11.85,11.85,0,0,1-.13-1.78,11.62,11.62,0,0,1,.13-1.77l-3.85-2.23,4.64-8,3.86,2.23a12.74,12.74,0,0,1,3.07-1.78V6h9.28v4.44a12.74,12.74,0,0,1,3.07,1.78L45.35,10l4.65,8-3.85,2.23a13.05,13.05,0,0,1,.13,1.77A13.32,13.32,0,0,1,46.15,23.83Z"/><path class="2b478ac6-7e25-4ab8-815d-fbd8edff00ce" d="M16.11,45.79H10.83L9.86,49H7l5.06-15.47h3.08l5,15.47h-3.1Zm-4.49-2.58h3.72l-1.82-6.09Zm24.53-9.68V49H33.36V38.59L30,45.24H27.71l-3.19-6.38V49h-2.8V33.53h3.21l4,8.32,4-8.32Z"/></svg>