<svg id="a7b303b2-f42e-46bd-ace6-2770af8395d4" data-name="SVG" xmlns="http://www.w3.org/2000/svg" width="56" height="56" viewBox="0 0 56 56"><defs><style>.aede8a5d-58fe-4fa1-a784-2551fd1ed7b9{fill:#42a5f5;}.\30 80616d4-d09e-4d7e-bd82-daa06a62742b,.a117872a-af9a-435f-acfc-27805517bf6f{fill:#fff;}.a117872a-af9a-435f-acfc-27805517bf6f{opacity:0.35;}</style></defs><title>app-ic_netact_cp_ru_56dp</title><rect class="aede8a5d-58fe-4fa1-a784-2551fd1ed7b9" width="56" height="56" rx="12" ry="12"/><path class="a117872a-af9a-435f-acfc-27805517bf6f" d="M49.39,26.92a4.5,4.5,0,0,0-5.2-2.06L41,19.38a9,9,0,0,1-1.64,1.38l3,5.15a4.52,4.52,0,1,0,7,1Zm-1.58,2.89a2.34,2.34,0,0,1-1.12,1.47,2.42,2.42,0,0,1-3.56-2.72,2.44,2.44,0,0,1,2.34-1.8,2.72,2.72,0,0,1,.63.08,2.42,2.42,0,0,1,1.71,3Zm-13.28-9.2a7.31,7.31,0,1,0-7.31-7.3A7.31,7.31,0,0,0,34.53,20.61Zm0-12.48a5.18,5.18,0,1,1-5.18,5.18A5.19,5.19,0,0,1,34.53,8.13ZM29.62,20.74l-3,5.17a4.49,4.49,0,0,1-1.33,7.43,2.44,2.44,0,0,0-1.05-1.85,2.47,2.47,0,0,0,1.38-1.09,2.42,2.42,0,0,0-.89-3.31,2.37,2.37,0,0,0-1.21-.33,2.72,2.72,0,0,0-.63.08A2.39,2.39,0,0,0,21.43,28a2.42,2.42,0,0,0-.25,1.84A2.46,2.46,0,0,0,22,31H19.72l-.3,0a4.5,4.5,0,0,1,5.39-6.2L28,19.35A9.43,9.43,0,0,0,29.62,20.74ZM39,35.47A4.53,4.53,0,0,1,34.5,40h-.13V37.88l.13,0a2.43,2.43,0,0,0,0-4.85l-.18,0a7.58,7.58,0,0,0-.87-2V22.15a9.48,9.48,0,0,0,1.08.07,8.74,8.74,0,0,0,1-.07v8.93A4.53,4.53,0,0,1,39,35.47Z"/><path class="080616d4-d09e-4d7e-bd82-daa06a62742b" d="M17.85,38.15A4.42,4.42,0,0,1,17,40.88a4.5,4.5,0,0,1-2.25,1.56L18.86,49h-3.6l-3.41-5.76H10V49H7V33.53h5.33a7.22,7.22,0,0,1,2.75.45,4.69,4.69,0,0,1,1.69,1.14,3.82,3.82,0,0,1,.86,1.49A5.51,5.51,0,0,1,17.85,38.15Zm-3.06.22A1.91,1.91,0,0,0,14,36.6a4.54,4.54,0,0,0-2.3-.47H10v4.51h1.54A4.34,4.34,0,0,0,14,40.1,1.91,1.91,0,0,0,14.79,38.37Zm11.44,11a8.14,8.14,0,0,1-2.85-.43,4.37,4.37,0,0,1-1.87-1.26,5.17,5.17,0,0,1-1-2.07,11.56,11.56,0,0,1-.32-2.86v-9.2h3.1v8.91a10.3,10.3,0,0,0,.16,2,3.34,3.34,0,0,0,.5,1.32,2,2,0,0,0,.92.73,4.5,4.5,0,0,0,2.78,0,1.94,1.94,0,0,0,.92-.73,3.21,3.21,0,0,0,.51-1.31,11.05,11.05,0,0,0,.15-2V33.53h3.11v9.22A11.56,11.56,0,0,1,32,45.61a5,5,0,0,1-1,2.06,4.48,4.48,0,0,1-1.88,1.25A8.06,8.06,0,0,1,26.23,49.35Z"/></svg>