<svg id="52e243a9-27b1-40dc-9aa3-d752a588733b" data-name="SVG" xmlns="http://www.w3.org/2000/svg" width="56" height="56" viewBox="0 0 56 56"><defs><style>.fb88d81d-a245-4ab5-8c19-fbd4338e1225{fill:#42a5f5;}.\39 e4114ea-2406-41b7-99b3-e4d95a3a43a3,.adfcd7c9-1f00-497f-89e1-9cca3376fbe6{fill:#fff;}.adfcd7c9-1f00-497f-89e1-9cca3376fbe6{opacity:0.35;}</style></defs><title>app-ic_netact_cp_wo_56dp</title><rect class="fb88d81d-a245-4ab5-8c19-fbd4338e1225" width="56" height="56" rx="12" ry="12"/><path class="adfcd7c9-1f00-497f-89e1-9cca3376fbe6" d="M49.39,26.92a4.5,4.5,0,0,0-5.2-2.06L41,19.38a9,9,0,0,1-1.64,1.38l3,5.15a4.52,4.52,0,1,0,7,1Zm-1.58,2.89a2.34,2.34,0,0,1-1.12,1.47,2.42,2.42,0,0,1-3.56-2.72,2.44,2.44,0,0,1,2.34-1.8,2.72,2.72,0,0,1,.63.08,2.42,2.42,0,0,1,1.71,3Zm-13.28-9.2a7.31,7.31,0,1,0-7.31-7.3A7.31,7.31,0,0,0,34.53,20.61Zm0-12.48a5.18,5.18,0,1,1-5.18,5.18A5.19,5.19,0,0,1,34.53,8.13Zm0,14.09a8.74,8.74,0,0,0,1-.07V31a11.52,11.52,0,0,0-2.1-.33V22.15A9.48,9.48,0,0,0,34.53,22.22Zm-4.91-1.48-3,5.17a4.51,4.51,0,0,1,.82,5.54c-.1.16-.2.31-.31.46A2.51,2.51,0,0,0,25.25,31h-.17a2.41,2.41,0,0,0-.34-3.94,2.37,2.37,0,0,0-1.21-.33,2.72,2.72,0,0,0-.63.08A2.39,2.39,0,0,0,21.43,28a2.42,2.42,0,0,0-.25,1.84A2.48,2.48,0,0,0,22,31.06H19.44a4.49,4.49,0,0,1,5.37-6.21L28,19.35A9.43,9.43,0,0,0,29.62,20.74Z"/><path class="9e4114ea-2406-41b7-99b3-e4d95a3a43a3" d="M13.76,49H10.38L7,33.53h3.13l2,11.11,2.33-10.75h3.35l2.26,10.75,2.05-11.11h3.08L21.88,49H18.49L16.14,38.4Zm12.41-7.74A11.89,11.89,0,0,1,26.59,38a7,7,0,0,1,1.29-2.55,6,6,0,0,1,2.19-1.67,7.33,7.33,0,0,1,3.12-.61,7.45,7.45,0,0,1,3.14.61,6,6,0,0,1,2.2,1.67A7.12,7.12,0,0,1,39.81,38a12.75,12.75,0,0,1,0,6.49,7.17,7.17,0,0,1-1.28,2.56,6.06,6.06,0,0,1-2.2,1.69,7.62,7.62,0,0,1-3.14.6,7.49,7.49,0,0,1-3.12-.6,6,6,0,0,1-2.19-1.69,7,7,0,0,1-1.29-2.56A11.87,11.87,0,0,1,26.17,41.26Zm3.21,0a7,7,0,0,0,.94,3.87,3.2,3.2,0,0,0,2.87,1.41,3.2,3.2,0,0,0,2.87-1.41A7,7,0,0,0,37,41.26a6.88,6.88,0,0,0-.94-3.86A3.19,3.19,0,0,0,33.19,36a3.19,3.19,0,0,0-2.87,1.4A6.88,6.88,0,0,0,29.38,41.26Z"/></svg>