<svg id="1edb763e-7d03-424e-8dcb-5d2b6311c6e6" data-name="SVG" xmlns="http://www.w3.org/2000/svg" width="56" height="56" viewBox="0 0 56 56"><defs><style>.\31 4d41fb3-34de-46ba-b1b9-3c662f7764e8{fill:#06bfa9;}.\30 9953194-e5a3-4a08-93c1-d2b8df278957,.\37 611ca9d-886e-4e5f-9e5d-4c2c4fbe242e{fill:#fff;}.\30 9953194-e5a3-4a08-93c1-d2b8df278957{opacity:0.35;}</style></defs><title>app-ic_netact_ad_iw_56dp</title><rect class="14d41fb3-34de-46ba-b1b9-3c662f7764e8" width="56" height="56" rx="12" ry="12"/><path class="09953194-e5a3-4a08-93c1-d2b8df278957" d="M39,22.05a5.19,5.19,0,1,0-5.19,5.19A5.2,5.2,0,0,0,39,22.05Zm-8.38,0a3.19,3.19,0,1,1,3.19,3.19A3.19,3.19,0,0,1,30.6,22.05Zm15.55,1.78L50,26.05l-4.65,8L41.5,31.86a12.42,12.42,0,0,1-3.07,1.78v4.44H31.05l.44-2h4.94V32.22l.69-.23a10.47,10.47,0,0,0,3.61-2.09l.54-.48,3.35,1.94,2.65-4.58-3.34-1.93.14-.7a10.56,10.56,0,0,0,0-4.19l-.14-.71,3.34-1.93-2.65-4.57-3.35,1.93-.54-.48a10.47,10.47,0,0,0-3.61-2.09l-.69-.23V8H31.15v3.86l-.69.23a10.47,10.47,0,0,0-3.61,2.09l-.54.48L23,12.75l-2.65,4.57,3.34,1.93-.14.71a10.56,10.56,0,0,0,0,4.19l.14.7-3.34,1.93L23,31.38H20.66l-3.08-5.33,3.85-2.22a11.85,11.85,0,0,1-.13-1.78,11.62,11.62,0,0,1,.13-1.77l-3.85-2.23,4.64-8,3.86,2.23a12.74,12.74,0,0,1,3.07-1.78V6h9.28v4.44a12.74,12.74,0,0,1,3.07,1.78L45.35,10l4.65,8-3.85,2.23a11.62,11.62,0,0,1,.13,1.77A11.85,11.85,0,0,1,46.15,23.83Z"/><path class="7611ca9d-886e-4e5f-9e5d-4c2c4fbe242e" d="M10.13,49H7V33.53h3.1Zm8.31,0H15.06L11.71,33.53h3.13l2,11.11,2.33-10.75h3.35L24.8,44.64l2.05-11.11h3.08L26.56,49H23.17L20.82,38.4Z"/></svg>