<svg id="94a0c862-e6bc-46eb-8207-ffb28b5e72f5" data-name="SVG" xmlns="http://www.w3.org/2000/svg" width="56" height="56" viewBox="0 0 56 56"><defs><style>.\34 739eb89-5d5e-401b-bcde-934a9d76995a{fill:#d32f2f;}.\38 7680839-0231-49e9-9c88-362ebb61131b,.ebb8450f-831b-4027-98fd-7674b44f80d0{fill:#fff;}.ebb8450f-831b-4027-98fd-7674b44f80d0{opacity:0.35;}</style></defs><title>app-ic_netact_ra_ad_56dp</title><rect class="4739eb89-5d5e-401b-bcde-934a9d76995a" width="56" height="56" rx="12" ry="12"/><path class="ebb8450f-831b-4027-98fd-7674b44f80d0" d="M36,26.2l3.17,1.9a2.09,2.09,0,0,0,0,.35,2.91,2.91,0,1,0,1-2.13l-3.72-2.24A2.89,2.89,0,1,0,36,26.2Zm6,1.37a.88.88,0,1,1-.88.88A.88.88,0,0,1,42.05,27.57Zm-8.46-2a.88.88,0,1,1,.88-.88A.88.88,0,0,1,33.59,25.57Zm-1.36-7.4a2.85,2.85,0,0,0,4.24-2.53c0-.08,0-.16,0-.25l4-1.6a2.87,2.87,0,1,0-.74-1.91.43.43,0,0,0,0,0l-4.12,1.65a2.87,2.87,0,0,0-4.68,3.09l-3.44,3A2.88,2.88,0,1,0,29,22.13a2.83,2.83,0,0,0-.18-1ZM42.58,11a.88.88,0,1,1-.88.88A.88.88,0,0,1,42.58,11Zm-9,3.76a.89.89,0,1,1-.88.88A.88.88,0,0,1,33.59,14.76ZM26.07,23a.89.89,0,1,1,.88-.89A.89.89,0,0,1,26.07,23ZM50,34v2H35.51a9.08,9.08,0,0,0-1.34-2H50ZM17.55,6h2V31.74h-2Z"/><path class="87680839-0231-49e9-9c88-362ebb61131b" d="M16.12,45.79H10.84L9.87,49H7l5.06-15.47h3.08l5,15.47h-3.1Zm-4.49-2.58h3.72l-1.83-6.09ZM27.1,33.53a8.84,8.84,0,0,1,3.32.57,6.06,6.06,0,0,1,2.33,1.58,6.59,6.59,0,0,1,1.39,2.44,10.13,10.13,0,0,1,.46,3.16,10.33,10.33,0,0,1-.46,3.19,6.49,6.49,0,0,1-1.4,2.43,6.23,6.23,0,0,1-2.34,1.55,9,9,0,0,1-3.3.55H21.73V33.53Zm0,12.83A4.34,4.34,0,0,0,28.89,46a3.66,3.66,0,0,0,1.35-1,4.8,4.8,0,0,0,.85-1.62,6.79,6.79,0,0,0,.3-2.08,5.45,5.45,0,0,0-1.17-3.84,4.08,4.08,0,0,0-3.12-1.25H24.83V46.36Z"/></svg>