<svg id="a5958dea-b707-4cce-af0b-6744d8abc326" data-name="SVG" xmlns="http://www.w3.org/2000/svg" width="56" height="56" viewBox="0 0 56 56"><defs><style>.\31 1f13bfc-671a-4b69-8cbb-2ad5e099849f{fill:#42a5f5;}.\34 35ceec6-7320-4485-b22b-5e60e8316754,.\39 03c2189-1d12-4dc5-baa2-5d1da9169e22{fill:#fff;}.\34 35ceec6-7320-4485-b22b-5e60e8316754{opacity:0.35;}</style></defs><title>app-ic_netact_cp_re_56dp</title><rect class="11f13bfc-671a-4b69-8cbb-2ad5e099849f" width="56" height="56" rx="12" ry="12"/><path class="435ceec6-7320-4485-b22b-5e60e8316754" d="M49.39,26.92a4.5,4.5,0,0,0-5.2-2.06L41,19.38a9,9,0,0,1-1.64,1.38l3,5.15a4.52,4.52,0,1,0,7,1Zm-1.58,2.89a2.34,2.34,0,0,1-1.12,1.47,2.42,2.42,0,0,1-3.56-2.72,2.44,2.44,0,0,1,2.34-1.8,2.72,2.72,0,0,1,.63.08,2.42,2.42,0,0,1,1.71,3Zm-13.28-9.2a7.31,7.31,0,1,0-7.31-7.3A7.31,7.31,0,0,0,34.53,20.61Zm0-12.48a5.18,5.18,0,1,1-5.18,5.18A5.19,5.19,0,0,1,34.53,8.13ZM29.62,20.74l-3,5.17a4.49,4.49,0,0,1,1,5.12H25.08a2.41,2.41,0,0,0-.34-3.94,2.37,2.37,0,0,0-1.21-.33,2.72,2.72,0,0,0-.63.08A2.39,2.39,0,0,0,21.43,28a2.42,2.42,0,0,0-.25,1.84A2.46,2.46,0,0,0,22,31H20a3.07,3.07,0,0,0-.53.06,4.51,4.51,0,0,1,5.38-6.23L28,19.35A9.43,9.43,0,0,0,29.62,20.74ZM39,35.47A4.53,4.53,0,0,1,34.5,40a4.46,4.46,0,0,1-2.39-.7V35.78a2.43,2.43,0,1,0,0-.51V33.53a2.53,2.53,0,0,0-.51-1.5,4.51,4.51,0,0,1,1.86-1V22.15a9.48,9.48,0,0,0,1.08.07,8.74,8.74,0,0,0,1-.07v8.93A4.53,4.53,0,0,1,39,35.47Z"/><path class="903c2189-1d12-4dc5-baa2-5d1da9169e22" d="M17.89,38.15a4.42,4.42,0,0,1-.81,2.73,4.5,4.5,0,0,1-2.25,1.56L18.91,49H15.3l-3.41-5.76H10.08V49H7V33.53h5.33A7.22,7.22,0,0,1,15.1,34a4.69,4.69,0,0,1,1.69,1.14,3.82,3.82,0,0,1,.86,1.49A5.51,5.51,0,0,1,17.89,38.15Zm-3.06.22a1.91,1.91,0,0,0-.78-1.77,4.53,4.53,0,0,0-2.29-.47H10.08v4.51h1.54A4.34,4.34,0,0,0,14,40.1,1.91,1.91,0,0,0,14.83,38.37Zm5.57-4.84H30v2.73H23.48v3.37h5v2.73h-5v3.91h6.78V49H20.4Z"/></svg>