<svg id="ec0892be-e796-4523-afcb-fd2f62541afd" data-name="SVG" xmlns="http://www.w3.org/2000/svg" width="56" height="56" viewBox="0 0 56 56"><defs><style>.\30 f3418b1-c850-4f37-9857-03d2c3f19c76{fill:#124191;}.\34 c474a3b-6a2c-4bd4-bdd2-a13019a94f7f,.fde41efa-56e3-4dd4-b27c-7bfc8ae6e5f5{fill:#fff;}.fde41efa-56e3-4dd4-b27c-7bfc8ae6e5f5{opacity:0.35;}</style></defs><title>app-ic_netact_se_ce_56dp</title><rect class="0f3418b1-c850-4f37-9857-03d2c3f19c76" width="56" height="56" rx="12" ry="12"/><path class="fde41efa-56e3-4dd4-b27c-7bfc8ae6e5f5" d="M36,11.08V19.2h8.34v2H36V31.51H34V21.2H25.54v-2H34V11.08ZM21,7V23.46A12.77,12.77,0,0,0,23.44,31h2.62A10.63,10.63,0,0,1,23,23.43V9H47V23.41c0,2.29-.2,9.25-11.82,11.79l-.13,0H35l-.14,0c-.57-.12-1.36-.3-2.27-.57v1.63a2.73,2.73,0,0,1,0,.41c.62.18,1.25.35,1.91.49l.37.09.2,0,.2,0a3,3,0,0,0,.41-.1C44.34,35.24,48.84,30.63,49,23.43V7Z"/><path class="4c474a3b-6a2c-4bd4-bdd2-a13019a94f7f" d="M14.32,36a4,4,0,0,0-1.82.4,3.42,3.42,0,0,0-1.28,1.11,5.1,5.1,0,0,0-.75,1.72,9.41,9.41,0,0,0-.24,2.21,9.65,9.65,0,0,0,.21,2.06,5,5,0,0,0,.67,1.66,3.39,3.39,0,0,0,1.19,1.1,3.66,3.66,0,0,0,1.76.39,4.94,4.94,0,0,0,1.1-.12,6.49,6.49,0,0,0,1-.3,5.82,5.82,0,0,0,.79-.37,4.74,4.74,0,0,0,.57-.37l1.45,2.15a8.39,8.39,0,0,1-2.17,1.22,8.1,8.1,0,0,1-3,.5,7.38,7.38,0,0,1-2.92-.54,5.61,5.61,0,0,1-2.12-1.56,6.91,6.91,0,0,1-1.3-2.5A11.71,11.71,0,0,1,7,41.39a11.23,11.23,0,0,1,.45-3.24,7.45,7.45,0,0,1,1.34-2.58A6.33,6.33,0,0,1,11,33.86a7.14,7.14,0,0,1,3-.61,7.89,7.89,0,0,1,2.81.46A7.44,7.44,0,0,1,19,35L17.49,37.1a7,7,0,0,0-1.25-.78A4.34,4.34,0,0,0,14.32,36Zm6.54-2.42h9.63v2.73H23.94v3.37h5v2.73h-5v3.91h6.77V49H20.86Z"/></svg>