<svg id="a79ae1f7-cb4d-4d4d-9adc-23b7468a870a" data-name="SVG" xmlns="http://www.w3.org/2000/svg" width="56" height="56" viewBox="0 0 56 56"><defs><style>.d6ba7fb5-33b5-4617-acd1-afce12077fa6{fill:#0e874f;}.\30 2a272d5-3861-4c66-9f4e-248f99f1cd57,.a0ef378c-d7e6-4bfc-8074-410aab431c07{fill:#fff;}.a0ef378c-d7e6-4bfc-8074-410aab431c07{opacity:0.35;}</style></defs><title>app-ic_netact_ua_od_56dp</title><rect class="d6ba7fb5-33b5-4617-acd1-afce12077fa6" width="56" height="56" rx="12" ry="12"/><path class="a0ef378c-d7e6-4bfc-8074-410aab431c07" d="M35.45,28.1a1.66,1.66,0,0,1,.46,1.22,1.64,1.64,0,0,1-.45,1.2,1.58,1.58,0,0,1-2.25,0,1.83,1.83,0,0,1,0-2.4A1.6,1.6,0,0,1,35.45,28.1Zm2.9-7.1a6.35,6.35,0,0,0,.81-1,5.7,5.7,0,0,0,.58-1.27A5.24,5.24,0,0,0,40,17.12a5.41,5.41,0,0,0-.32-1.85,4.45,4.45,0,0,0-1-1.57h0A4.79,4.79,0,0,0,37,12.64a6.33,6.33,0,0,0-2.28-.38,7.66,7.66,0,0,0-2,.26,7,7,0,0,0-1.62.67,7.87,7.87,0,0,0-1.22.9A8.45,8.45,0,0,0,29,15l-.21.24,1.41,1.45.25-.31a6.11,6.11,0,0,1,1.72-1.44,4.71,4.71,0,0,1,2.4-.58,3.27,3.27,0,0,1,2.42.78,2.9,2.9,0,0,1,.76,2.12,3.05,3.05,0,0,1-.16,1,4.73,4.73,0,0,1-.44.87,4.43,4.43,0,0,1-.57.71l-.59.57a16.42,16.42,0,0,0-1.25,1.21,6.23,6.23,0,0,0-.88,1.18,5,5,0,0,0-.51,1.36,8.63,8.63,0,0,0-.15,1.71v.36h2.12v-.36a5.26,5.26,0,0,1,.16-1.35,4.31,4.31,0,0,1,.43-1,4.72,4.72,0,0,1,.67-.82c.27-.27.58-.55.92-.84S38.07,21.29,38.35,21Zm-4-15A15.61,15.61,0,0,0,22.05,31.21,2.48,2.48,0,0,1,23,31h1.53a13.62,13.62,0,1,1,12.14,4,9.13,9.13,0,0,1,.95,1.87A15.63,15.63,0,0,0,34.38,6Z"/><path class="02a272d5-3861-4c66-9f4e-248f99f1cd57" d="M7.09,41.24A11.87,11.87,0,0,1,7.51,38,7.1,7.1,0,0,1,8.8,35.44,6,6,0,0,1,11,33.77a7.57,7.57,0,0,1,3.13-.6,7.53,7.53,0,0,1,3.13.6,5.93,5.93,0,0,1,2.2,1.67A7.1,7.1,0,0,1,20.73,38a12.75,12.75,0,0,1,0,6.49,7.1,7.1,0,0,1-1.29,2.56,5.85,5.85,0,0,1-2.2,1.68,7.53,7.53,0,0,1-3.13.61A7.56,7.56,0,0,1,11,48.73,5.86,5.86,0,0,1,8.8,47.05a7.1,7.1,0,0,1-1.29-2.56A12,12,0,0,1,7.09,41.24Zm3.21,0a6.88,6.88,0,0,0,.94,3.87,3.2,3.2,0,0,0,2.87,1.41A3.2,3.2,0,0,0,17,45.11a7,7,0,0,0,.94-3.87A6.9,6.9,0,0,0,17,37.38,3.22,3.22,0,0,0,14.11,36a3.22,3.22,0,0,0-2.87,1.4A6.82,6.82,0,0,0,10.3,41.24Zm18.5-7.72a9.07,9.07,0,0,1,3.33.56,6.14,6.14,0,0,1,2.33,1.58,6.7,6.7,0,0,1,1.38,2.45,10,10,0,0,1,.47,3.15,10.23,10.23,0,0,1-.47,3.19,6.05,6.05,0,0,1-3.74,4,8.91,8.91,0,0,1-3.3.55H23.44V33.52Zm0,12.82A4.38,4.38,0,0,0,30.6,46a3.72,3.72,0,0,0,1.35-1,4.75,4.75,0,0,0,.85-1.61,6.86,6.86,0,0,0,.29-2.09,5.43,5.43,0,0,0-1.16-3.83,4.09,4.09,0,0,0-3.13-1.25H26.54V46.34Z"/></svg>