<svg id="3a36dd00-74a2-4b8b-ace8-6c09f135192a" data-name="SVG" xmlns="http://www.w3.org/2000/svg" width="56" height="56" viewBox="0 0 56 56"><defs><style>.c363453d-e9cb-4c58-a41c-63c8b8f7f04c{fill:#124191;}.\30 24fac20-70b0-4e62-87b2-20c1402a1538,.f2f2d875-868b-4203-9538-6dddc6517d0b{fill:#fff;}.\30 24fac20-70b0-4e62-87b2-20c1402a1538{opacity:0.35;}</style></defs><title>app-ic_netact_se_ea_56dp</title><rect class="c363453d-e9cb-4c58-a41c-63c8b8f7f04c" width="56" height="56" rx="12" ry="12"/><path class="024fac20-70b0-4e62-87b2-20c1402a1538" d="M36,11.08V19.2h8.34v2H36V31.51H34V21.2H25.54v-2H34V11.08ZM21,7V23.46A12.75,12.75,0,0,0,23.43,31h2.63A10.63,10.63,0,0,1,23,23.43V9H47V23.41c0,2.29-.2,9.25-11.82,11.79l-.13,0H35l-.14,0a20.26,20.26,0,0,1-6.89-2.64,1.21,1.21,0,0,1,.09.2l.83,2.55a25.53,25.53,0,0,0,5.58,1.85l.37.09.2,0,.2,0a3,3,0,0,0,.41-.1C44.34,35.24,48.84,30.63,49,23.43V7Z"/><path class="f2f2d875-868b-4203-9538-6dddc6517d0b" d="M7,33.53h9.64v2.73H10.11v3.37h5v2.73h-5v3.91h6.78V49H7Zm20,12.26H21.77L20.8,49H17.94L23,33.53h3.08l5,15.47H28Zm-4.49-2.58h3.72l-1.83-6.09Z"/></svg>