<svg id="ee4f3c6f-b044-43f9-88dd-499abc081b96" data-name="SVG" xmlns="http://www.w3.org/2000/svg" width="56" height="56" viewBox="0 0 56 56"><defs><style>.\34 b71a0d3-ff88-445d-9f36-a644f4de889f{fill:#06bfa9;}.\36 3cd9255-c43c-4bc2-9232-e73e57d86803,.c35542a1-3e4b-4a25-bbb3-9444c892730c{fill:#fff;}.c35542a1-3e4b-4a25-bbb3-9444c892730c{opacity:0.35;}</style></defs><title>app-ic_netact_ad_pf_56dp</title><rect class="4b71a0d3-ff88-445d-9f36-a644f4de889f" width="56" height="56" rx="12" ry="12"/><path class="c35542a1-3e4b-4a25-bbb3-9444c892730c" d="M39,22.05a5.19,5.19,0,1,0-5.19,5.19A5.2,5.2,0,0,0,39,22.05Zm-8.38,0a3.19,3.19,0,1,1,3.19,3.19A3.19,3.19,0,0,1,30.6,22.05Zm15.55,1.78L50,26.05l-4.65,8L41.5,31.86a12.42,12.42,0,0,1-3.07,1.78v4.44H31.16v-2h5.27V32.22l.69-.23a10.47,10.47,0,0,0,3.61-2.09l.54-.48,3.35,1.94,2.65-4.58-3.34-1.93.14-.7a10.56,10.56,0,0,0,0-4.19l-.14-.71,3.34-1.93-2.65-4.57-3.35,1.93-.54-.48a10.47,10.47,0,0,0-3.61-2.09l-.69-.23V8H31.15v3.86l-.69.23a10.47,10.47,0,0,0-3.61,2.09l-.54.48L23,12.75l-2.65,4.57,3.35,1.93-.15.71a10.51,10.51,0,0,0,0,4.18l.15.71-3.35,1.93L22.77,31H20.46l-2.88-5,3.85-2.22a11.85,11.85,0,0,1-.13-1.78,11.62,11.62,0,0,1,.13-1.77l-3.85-2.23,4.64-8,3.86,2.23a12.55,12.55,0,0,1,3.07-1.78V6h9.28v4.44a12.74,12.74,0,0,1,3.07,1.78L45.35,10l4.65,8-3.85,2.23a11.62,11.62,0,0,1,.13,1.77A11.85,11.85,0,0,1,46.15,23.83Z"/><path class="63cd9255-c43c-4bc2-9232-e73e57d86803" d="M17.72,38.57a6.05,6.05,0,0,1-.29,1.81,4.09,4.09,0,0,1-1,1.61,5.06,5.06,0,0,1-1.83,1.17,7.79,7.79,0,0,1-2.84.45H10V49H7V33.53h5a7.29,7.29,0,0,1,2.73.45,5,5,0,0,1,1.76,1.17,4.28,4.28,0,0,1,.94,1.62A5.94,5.94,0,0,1,17.72,38.57Zm-3.06,0a2.65,2.65,0,0,0-.22-1.15,2,2,0,0,0-.59-.76,2.36,2.36,0,0,0-.86-.41,4.28,4.28,0,0,0-1-.12H10V41h1.72a5.11,5.11,0,0,0,1.14-.12,2.6,2.6,0,0,0,.93-.4,2.13,2.13,0,0,0,.61-.75A2.69,2.69,0,0,0,14.66,38.57Zm4.91-5h9.52v2.73H22.65v3.37h4.93v2.73H22.65V49H19.57Z"/></svg>