<svg id="0b98f50a-3982-4347-8ce2-c78137a0979e" data-name="SVG" xmlns="http://www.w3.org/2000/svg" width="56" height="56" viewBox="0 0 56 56"><defs><style>.\39 1c6beb8-7004-45cb-bfbe-10a1724df18b{fill:#42a5f5;}.\31 6507165-7a88-4ca0-9d7f-68721a71c354,.\34 54aedb7-0f3c-4fde-b467-34d5503f8dea{fill:#fff;}.\34 54aedb7-0f3c-4fde-b467-34d5503f8dea{opacity:0.35;}</style></defs><title>app-ic_netact_cp_so_56dp</title><rect class="91c6beb8-7004-45cb-bfbe-10a1724df18b" width="56" height="56" rx="12" ry="12"/><path class="454aedb7-0f3c-4fde-b467-34d5503f8dea" d="M49.39,26.92a4.5,4.5,0,0,0-5.2-2.06L41,19.38a9,9,0,0,1-1.64,1.38l3,5.15a4.52,4.52,0,1,0,7,1Zm-1.58,2.89a2.34,2.34,0,0,1-1.12,1.47,2.42,2.42,0,0,1-3.56-2.72,2.44,2.44,0,0,1,2.34-1.8,2.72,2.72,0,0,1,.63.08,2.42,2.42,0,0,1,1.71,3Zm-13.28-9.2a7.31,7.31,0,1,0-7.31-7.3A7.31,7.31,0,0,0,34.53,20.61Zm0-12.48a5.18,5.18,0,1,1-5.18,5.18A5.19,5.19,0,0,1,34.53,8.13ZM29.62,20.74l-3,5.17a4.51,4.51,0,0,1,1.12,4.89,12.1,12.1,0,0,0-1.62-.12c-.25,0-.49,0-.73,0a3.71,3.71,0,0,0,.23-.32,2.42,2.42,0,0,0-.89-3.31,2.37,2.37,0,0,0-1.21-.33,2.72,2.72,0,0,0-.63.08A2.39,2.39,0,0,0,21.43,28a2.42,2.42,0,0,0-.25,1.84,2.39,2.39,0,0,0,1.13,1.47l.12.06-.47.17a9.32,9.32,0,0,0-1.56.93,4.51,4.51,0,0,1,4.41-7.58L28,19.35A9.43,9.43,0,0,0,29.62,20.74ZM39,35.47a4.53,4.53,0,0,1-3.43,4.38,14,14,0,0,0-.34-2.09,2.42,2.42,0,0,0-.76-4.71,2.45,2.45,0,0,0-1.43.47,8.29,8.29,0,0,0-1.63-1.37,4.56,4.56,0,0,1,2-1.07V22.15a9.48,9.48,0,0,0,1.08.07,8.74,8.74,0,0,0,1-.07v8.93A4.53,4.53,0,0,1,39,35.47Z"/><path class="16507165-7a88-4ca0-9d7f-68721a71c354" d="M10.86,42.14a8.15,8.15,0,0,1-1.4-.59,4.91,4.91,0,0,1-1.18-.88,4,4,0,0,1-.84-1.21,3.7,3.7,0,0,1-.32-1.55,4.44,4.44,0,0,1,1.4-3.46,5.65,5.65,0,0,1,4-1.27,10.44,10.44,0,0,1,2.74.35,7.38,7.38,0,0,1,2,.84l-1,2.33a9.35,9.35,0,0,0-1.34-.56,6.54,6.54,0,0,0-2.15-.32,4.59,4.59,0,0,0-.93.09,2.44,2.44,0,0,0-.78.3,1.5,1.5,0,0,0-.54.55,1.61,1.61,0,0,0-.2.82,1.92,1.92,0,0,0,.09.59,1.45,1.45,0,0,0,.33.53,2.46,2.46,0,0,0,.65.49,7,7,0,0,0,1.07.42l1.54.44a8.65,8.65,0,0,1,1.68.64,4.58,4.58,0,0,1,1.24.93,3.71,3.71,0,0,1,.78,1.26,4.62,4.62,0,0,1,.28,1.68,4.43,4.43,0,0,1-1.45,3.56,6.2,6.2,0,0,1-4.12,1.23,10,10,0,0,1-1.89-.16,12.06,12.06,0,0,1-1.53-.4,8.77,8.77,0,0,1-1.15-.47c-.33-.16-.57-.3-.75-.4L8.2,45.48c.18.1.4.22.68.35a8.93,8.93,0,0,0,.95.38A10.14,10.14,0,0,0,11,46.5a7.07,7.07,0,0,0,1.33.12,4.81,4.81,0,0,0,.83-.07,2.18,2.18,0,0,0,.78-.3,1.94,1.94,0,0,0,.57-.57,1.71,1.71,0,0,0,.22-.93,1.88,1.88,0,0,0-.09-.57,1.49,1.49,0,0,0-.32-.55,2.61,2.61,0,0,0-.63-.5,4.75,4.75,0,0,0-1-.44Zm8.69-.88A11.89,11.89,0,0,1,20,38a7,7,0,0,1,1.29-2.55,5.86,5.86,0,0,1,2.18-1.67,7.41,7.41,0,0,1,3.13-.61,7.38,7.38,0,0,1,3.13.61,5.93,5.93,0,0,1,2.2,1.67A7,7,0,0,1,33.19,38a12.75,12.75,0,0,1,0,6.49,7,7,0,0,1-1.29,2.56,6,6,0,0,1-2.2,1.69,7.53,7.53,0,0,1-3.13.6,7.57,7.57,0,0,1-3.13-.6,5.91,5.91,0,0,1-2.18-1.69A7,7,0,0,1,20,44.5,11.87,11.87,0,0,1,19.55,41.26Zm3.21,0a6.88,6.88,0,0,0,.94,3.87,3.2,3.2,0,0,0,2.87,1.41,3.2,3.2,0,0,0,2.87-1.41,7,7,0,0,0,.94-3.87,6.88,6.88,0,0,0-.94-3.86A3.19,3.19,0,0,0,26.57,36a3.19,3.19,0,0,0-2.87,1.4A6.8,6.8,0,0,0,22.76,41.26Z"/></svg>