<svg id="0276c704-5a85-41f2-92cd-0f4e98ebae24" data-name="SVG" xmlns="http://www.w3.org/2000/svg" width="56" height="56" viewBox="0 0 56 56"><defs><style>.c9e8d068-c49e-43f9-990d-7a1b930fa52c{fill:#42a5f5;}.\34 1123a9f-dbd3-4877-849f-7144a1f96179,.\34 6dddeb9-5c7b-49cd-a7d2-6e69c38917eb{fill:#fff;}.\34 6dddeb9-5c7b-49cd-a7d2-6e69c38917eb{opacity:0.35;}</style></defs><title>app-ic_netact_cp_an_56dp</title><rect class="c9e8d068-c49e-43f9-990d-7a1b930fa52c" width="56" height="56" rx="12" ry="12"/><path class="46dddeb9-5c7b-49cd-a7d2-6e69c38917eb" d="M49.39,26.92a4.5,4.5,0,0,0-5.2-2.06L41,19.38a9,9,0,0,1-1.64,1.38l3,5.15a4.52,4.52,0,1,0,7,1Zm-1.58,2.89a2.34,2.34,0,0,1-1.12,1.47,2.42,2.42,0,0,1-3.56-2.72,2.44,2.44,0,0,1,2.34-1.8,2.72,2.72,0,0,1,.63.08,2.42,2.42,0,0,1,1.71,3Zm-13.28-9.2a7.31,7.31,0,1,0-7.31-7.3A7.31,7.31,0,0,0,34.53,20.61Zm0-12.48a5.18,5.18,0,1,1-5.18,5.18A5.19,5.19,0,0,1,34.53,8.13ZM39,35.47a4.53,4.53,0,0,1-3.32,4.35V37.56a2.41,2.41,0,0,0,0-4.18c-.73-.85-1.2-1.26-2.25-2.32V22.15a9.48,9.48,0,0,0,1.08.07,8.74,8.74,0,0,0,1-.07v8.93A4.53,4.53,0,0,1,39,35.47ZM29.62,20.74l-3,5.17a4.51,4.51,0,0,1,.82,5.54,4.62,4.62,0,0,1-.88,1.08l-.17-.29A2.46,2.46,0,0,0,25,31.14a2.38,2.38,0,0,0,.92-2.58,2.39,2.39,0,0,0-1.13-1.47,2.37,2.37,0,0,0-1.21-.33,2.72,2.72,0,0,0-.63.08A2.39,2.39,0,0,0,21.43,28a2.42,2.42,0,0,0-.25,1.84A2.39,2.39,0,0,0,22,31H19.42a4.49,4.49,0,0,1,5.39-6.17L28,19.35A9.43,9.43,0,0,0,29.62,20.74Z"/><path class="41123a9f-dbd3-4877-849f-7144a1f96179" d="M16.12,45.79H10.84L9.87,49H7l5.06-15.47h3.08l5,15.47h-3.1Zm-4.49-2.58h3.72l-1.83-6.09Zm12.94-4.46V49H21.73V33.53h3l6.12,10.08V33.53h2.83V49H30.82Z"/></svg>