<svg id="a8a886f8-9501-4d94-8813-f1ec8427b753" data-name="SVG" xmlns="http://www.w3.org/2000/svg" width="56" height="56" viewBox="0 0 56 56"><defs><style>.d6fdc33f-e0dd-4dc8-8662-2c15b1282fae{fill:#ffbc00;}.\39 02d480c-6204-49ce-9daa-33659c7a0608,.a803c0a9-bff8-4c62-a70e-8274f7460b95{fill:#fff;}.\39 02d480c-6204-49ce-9daa-33659c7a0608{opacity:0.35;}</style></defs><title>app-ic_netact_mo_sm_56dp</title><rect class="d6fdc33f-e0dd-4dc8-8662-2c15b1282fae" width="56" height="56" rx="12" ry="12"/><path class="902d480c-6204-49ce-9daa-33659c7a0608" d="M37.67,20.48l-2.52,6.29a1,1,0,0,1-.93.62h-.07a1,1,0,0,1-.9-.75l-2.51-9.72-2.13,5.32a1,1,0,0,1-.93.63H23.19v-2H27l3-7.52a1,1,0,0,1,1-.63,1,1,0,0,1,.9.75l2.51,9.72,2.13-5.32a1,1,0,0,1,.85-.62,1,1,0,0,1,.93.48l1.89,3.14h6v2H39.66a1,1,0,0,1-.85-.49ZM46,6H22.31a4,4,0,0,0-4,4V30.11a3.47,3.47,0,0,0,.14.92h2.1a1.91,1.91,0,0,1-.24-.92V10a2,2,0,0,1,2-2H46a2,2,0,0,1,2,2V30.11a2,2,0,0,1-2,2H36.56v2H46a4,4,0,0,0,4-4V10A4,4,0,0,0,46,6Z"/><path class="a803c0a9-bff8-4c62-a70e-8274f7460b95" d="M10.92,42.14a8.15,8.15,0,0,1-1.4-.59,4.91,4.91,0,0,1-1.18-.88,4,4,0,0,1-.84-1.21,3.7,3.7,0,0,1-.32-1.55,4.44,4.44,0,0,1,1.4-3.46,5.65,5.65,0,0,1,3.95-1.27,10.44,10.44,0,0,1,2.74.35,7.38,7.38,0,0,1,2,.84l-1,2.33a9.35,9.35,0,0,0-1.34-.56,6.54,6.54,0,0,0-2.15-.32,4.66,4.66,0,0,0-.93.09,2.44,2.44,0,0,0-.78.3,1.5,1.5,0,0,0-.54.55,1.61,1.61,0,0,0-.2.82,1.92,1.92,0,0,0,.09.59,1.45,1.45,0,0,0,.33.53,2.46,2.46,0,0,0,.65.49,7,7,0,0,0,1.07.42l1.54.44a8.65,8.65,0,0,1,1.68.64,4.58,4.58,0,0,1,1.24.93,3.9,3.9,0,0,1,.79,1.26,4.85,4.85,0,0,1,.27,1.68,4.4,4.4,0,0,1-1.45,3.56,6.2,6.2,0,0,1-4.12,1.23,10,10,0,0,1-1.89-.16A12.06,12.06,0,0,1,9,48.79a9.38,9.38,0,0,1-1.15-.47c-.32-.16-.57-.3-.75-.4l1.21-2.44c.18.1.4.22.68.35a9.88,9.88,0,0,0,1,.38A10.14,10.14,0,0,0,11,46.5a7.07,7.07,0,0,0,1.33.12,4.81,4.81,0,0,0,.83-.07,2.11,2.11,0,0,0,.78-.3,1.82,1.82,0,0,0,.57-.57,1.71,1.71,0,0,0,.22-.93,1.88,1.88,0,0,0-.09-.57,1.46,1.46,0,0,0-.31-.55,2.91,2.91,0,0,0-.64-.5,4.55,4.55,0,0,0-1-.44Zm23.56-8.61V49H31.69V38.59l-3.37,6.65H26l-3.19-6.38V49h-2.8V33.53h3.21l4,8.32,4-8.32Z"/></svg>