<svg id="ed5774c7-b431-4f75-b4c4-738a9201b087" data-name="SVG" xmlns="http://www.w3.org/2000/svg" width="56" height="56" viewBox="0 0 56 56"><defs><style>.\32 dc1ff0c-1cea-4e21-b14b-6278ce007c44{fill:#06bfa9;}.\31 8796a78-d7bd-4fd1-8e89-bd6831115913,.b19fd00e-56c0-4c3d-9f4d-b8c0ecf56649{fill:#fff;}.b19fd00e-56c0-4c3d-9f4d-b8c0ecf56649{opacity:0.35;}</style></defs><title>app-ic_netact_ad_ma_56dp</title><rect class="2dc1ff0c-1cea-4e21-b14b-6278ce007c44" width="56" height="56" rx="12" ry="12"/><path class="b19fd00e-56c0-4c3d-9f4d-b8c0ecf56649" d="M39,22.05a5.19,5.19,0,1,0-5.19,5.19A5.2,5.2,0,0,0,39,22.05Zm-5.19,3.19A3.19,3.19,0,1,1,37,22.05,3.19,3.19,0,0,1,33.79,25.24Zm12.36-1.41L50,26.05l-4.65,8L41.5,31.86a12.42,12.42,0,0,1-3.07,1.78v4.44H34.81l-.65-2h2.27V32.22l.68-.23a10.43,10.43,0,0,0,3.62-2.09l.54-.48,3.35,1.94,2.65-4.58-3.35-1.93.15-.71a10.51,10.51,0,0,0,0-4.18l-.15-.71,3.35-1.93-2.65-4.57-3.35,1.93-.54-.48a10.43,10.43,0,0,0-3.62-2.09l-.68-.23V8H31.15v3.86l-.69.23a10.47,10.47,0,0,0-3.61,2.09l-.54.48L23,12.75l-2.65,4.57,3.34,1.93-.14.71a10.56,10.56,0,0,0,0,4.19l.14.7-3.34,1.93L22.77,31H20.46l-2.88-5,3.85-2.22a11.85,11.85,0,0,1-.13-1.78,11.62,11.62,0,0,1,.13-1.77l-3.85-2.23,4.64-8,3.86,2.23a12.74,12.74,0,0,1,3.07-1.78V6h9.28v4.44a12.74,12.74,0,0,1,3.07,1.78L45.35,10l4.65,8-3.85,2.23a13.05,13.05,0,0,1,.13,1.77A13.32,13.32,0,0,1,46.15,23.83Z"/><path class="18796a78-d7bd-4fd1-8e89-bd6831115913" d="M21.46,33.53V49h-2.8V38.59L15.3,45.24H13L9.82,38.86V49H7V33.53h3.21l4,8.32,4-8.32ZM32.11,45.79H26.83l-1,3.21H23l5.06-15.47h3.08l5,15.47H33.07Zm-4.49-2.58h3.72l-1.83-6.09Z"/></svg>