<svg id="39b6c1ea-8c67-4bb5-8fcf-9eca6e28955d" data-name="SVG" xmlns="http://www.w3.org/2000/svg" width="56" height="56" viewBox="0 0 56 56"><defs><style>.\36 0448795-850f-40de-9cfe-283a20882885{fill:#42a5f5;}.\38 9ac5c7f-fe54-4141-a0e1-16766a359196,.d130e93c-ffa1-40c0-ba73-1e4303a4caa6{fill:#fff;}.\38 9ac5c7f-fe54-4141-a0e1-16766a359196{opacity:0.35;}</style></defs><title>app-ic_netact_cp_fl_56dp</title><rect class="60448795-850f-40de-9cfe-283a20882885" width="56" height="56" rx="12" ry="12"/><path class="89ac5c7f-fe54-4141-a0e1-16766a359196" d="M49.39,26.92a4.5,4.5,0,0,0-5.2-2.06L41,19.38a9,9,0,0,1-1.64,1.38l3,5.15a4.52,4.52,0,1,0,7,1Zm-1.58,2.89a2.34,2.34,0,0,1-1.12,1.47,2.42,2.42,0,0,1-3.56-2.72,2.44,2.44,0,0,1,2.34-1.8,2.72,2.72,0,0,1,.63.08,2.42,2.42,0,0,1,1.71,3ZM35.55,31.08V22.15a8.74,8.74,0,0,1-1,.07,9.48,9.48,0,0,1-1.08-.07v8.93a4.53,4.53,0,1,0,2.1,0Zm-1,6.82a2.43,2.43,0,1,1,2.42-2.43A2.42,2.42,0,0,1,34.5,37.9Zm0-17.29a7.31,7.31,0,1,0-7.31-7.3A7.31,7.31,0,0,0,34.53,20.61Zm0-12.48a5.18,5.18,0,1,1-5.18,5.18A5.19,5.19,0,0,1,34.53,8.13ZM28,19.35l-3.18,5.51A4.5,4.5,0,0,0,19.41,31h1.7a2.5,2.5,0,0,1,2.5,2.5v.18a4.51,4.51,0,0,0,3-7.8l3-5.17A9.43,9.43,0,0,1,28,19.35Zm-2.36,11a2.44,2.44,0,0,1-3.32.88,2.39,2.39,0,0,1-1.13-1.47A2.42,2.42,0,0,1,21.43,28a2.39,2.39,0,0,1,1.47-1.13,2.72,2.72,0,0,1,.63-.08,2.37,2.37,0,0,1,1.21.33,2.42,2.42,0,0,1,.89,3.31Z"/><path class="d130e93c-ffa1-40c0-ba73-1e4303a4caa6" d="M7,33.53h9.52v2.73H10.09v3.37H15v2.73H10.09V49H7ZM21.55,46.27h6.51V49H18.45V33.53h3.1Z"/></svg>