<svg id="e46f28a5-d38c-401c-9188-907fc50ef03c" data-name="SVG" xmlns="http://www.w3.org/2000/svg" width="56" height="56" viewBox="0 0 56 56"><defs><style>.\31 ef084d7-f189-431b-b951-9e8324df6b07{fill:#42a5f5;}.\38 51dfcd4-5554-4780-af71-f2982d811330,.fd519d2a-c006-4cf3-aa38-64074726a2bd{fill:#fff;}.fd519d2a-c006-4cf3-aa38-64074726a2bd{opacity:0.35;}</style></defs><title>app-ic_netact_cp_ac_56dp</title><rect class="1ef084d7-f189-431b-b951-9e8324df6b07" width="56" height="56" rx="12" ry="12"/><path class="fd519d2a-c006-4cf3-aa38-64074726a2bd" d="M49.39,26.92a4.5,4.5,0,0,0-5.2-2.06L41,19.38a9,9,0,0,1-1.64,1.38l3,5.15a4.52,4.52,0,1,0,7,1Zm-1.58,2.89a2.34,2.34,0,0,1-1.12,1.47,2.42,2.42,0,0,1-3.56-2.72,2.44,2.44,0,0,1,2.34-1.8,2.72,2.72,0,0,1,.63.08,2.42,2.42,0,0,1,1.71,3Zm-13.28-9.2a7.31,7.31,0,1,0-7.31-7.3A7.31,7.31,0,0,0,34.53,20.61Zm0-12.48a5.18,5.18,0,1,1-5.18,5.18A5.19,5.19,0,0,1,34.53,8.13ZM39,35.47a4.53,4.53,0,0,1-7,3.8,2.54,2.54,0,0,0,.81-.72l.63-.89a2.32,2.32,0,0,0,1,.24,2.43,2.43,0,0,0,0-4.85,2.94,2.94,0,0,0-.51.05l0,0a9,9,0,0,0-2-1.31,4.44,4.44,0,0,1,1.5-.68V22.15a9.48,9.48,0,0,0,1.08.07,8.74,8.74,0,0,0,1-.07v8.93A4.53,4.53,0,0,1,39,35.47ZM29.62,20.74l-3,5.17a4.52,4.52,0,0,1,1.14,4.85h-.39a10.21,10.21,0,0,0-2.25.24,2.61,2.61,0,0,0,.5-.59,2.42,2.42,0,0,0-.89-3.31,2.37,2.37,0,0,0-1.21-.33,2.72,2.72,0,0,0-.63.08A2.39,2.39,0,0,0,21.43,28a2.42,2.42,0,0,0-.25,1.84,2.39,2.39,0,0,0,1.13,1.47,2.29,2.29,0,0,0,1,.31h0A8.86,8.86,0,0,0,21.14,33a4.51,4.51,0,0,1,3.67-8.16L28,19.35A9.43,9.43,0,0,0,29.62,20.74Z"/><path class="851dfcd4-5554-4780-af71-f2982d811330" d="M16.16,45.79H10.88L9.91,49H7.05l5.06-15.47h3.08l5,15.47h-3.1Zm-4.49-2.58h3.72l-1.83-6.09ZM28.08,36a4,4,0,0,0-1.82.4A3.42,3.42,0,0,0,25,37.46a4.91,4.91,0,0,0-.75,1.72,10.21,10.21,0,0,0,0,4.26,4.92,4.92,0,0,0,.67,1.67,3.39,3.39,0,0,0,1.19,1.1,3.66,3.66,0,0,0,1.76.39,4.94,4.94,0,0,0,1.1-.12,6.84,6.84,0,0,0,1.76-.67,5.71,5.71,0,0,0,.57-.37l1.45,2.15a8.29,8.29,0,0,1-2.18,1.22,8,8,0,0,1-3,.5,7.37,7.37,0,0,1-2.91-.54,5.61,5.61,0,0,1-2.12-1.56,6.83,6.83,0,0,1-1.3-2.5,11.36,11.36,0,0,1-.44-3.32,11.23,11.23,0,0,1,.45-3.24,7.45,7.45,0,0,1,1.34-2.58,6.21,6.21,0,0,1,2.21-1.71,7.11,7.11,0,0,1,3-.61,7.79,7.79,0,0,1,2.8.46A7.36,7.36,0,0,1,32.77,35L31.25,37.1A7,7,0,0,0,30,36.32,4.34,4.34,0,0,0,28.08,36Z"/></svg>