<svg id="e9847d16-3468-4d65-86c9-c8e32557ab9a" data-name="SVG" xmlns="http://www.w3.org/2000/svg" width="56" height="56" viewBox="0 0 56 56"><defs><style>.cfc98ee0-87ff-45c3-a63d-022a9bdb18d0{fill:#ffbc00;}.acacaa0d-ae4d-4df2-b785-21c771aeeada,.eeac777d-2727-4934-8ebc-ecf493057f7a{fill:#fff;}.eeac777d-2727-4934-8ebc-ecf493057f7a{opacity:0.35;}</style></defs><title>app-ic_netact_mo_al_56dp</title><rect class="cfc98ee0-87ff-45c3-a63d-022a9bdb18d0" width="56" height="56" rx="12" ry="12"/><path class="eeac777d-2727-4934-8ebc-ecf493057f7a" d="M27.68,22.87H23.19v-2H27l3-7.52a1,1,0,0,1,1-.63,1,1,0,0,1,.9.75l2.51,9.72,2.13-5.32a1,1,0,0,1,.85-.62,1,1,0,0,1,.93.48l1.89,3.14h6v2H39.66a1,1,0,0,1-.85-.49l-1.14-1.9-2.52,6.29a1,1,0,0,1-.93.62h-.07a1,1,0,0,1-.9-.75l-2.51-9.72-2.13,5.32A1,1,0,0,1,27.68,22.87ZM46,6H22.31a4,4,0,0,0-4,4V30.11a3.74,3.74,0,0,0,.15,1H20.6a1.92,1.92,0,0,1-.29-1V10a2,2,0,0,1,2-2H46a2,2,0,0,1,2,2V30.11a2,2,0,0,1-2,2H26.43a2.52,2.52,0,0,1,.45,1.42v.58H46a4,4,0,0,0,4-4V10A4,4,0,0,0,46,6Z"/><path class="acacaa0d-ae4d-4df2-b785-21c771aeeada" d="M16.11,45.79H10.83L9.86,49H7l5.06-15.47h3.08l5,15.47H17.07Zm-4.49-2.58h3.72l-1.83-6.09Zm13.2,3.06h6.51V49H21.72V33.53h3.1Z"/></svg>