<svg id="57518383-2be8-4f9a-97e3-9900faca632a" data-name="SVG" xmlns="http://www.w3.org/2000/svg" width="56" height="56" viewBox="0 0 56 56"><defs><style>.c57e5a60-aeca-4650-83c1-1f29943ea724{fill:#42a5f5;}.\33 bb64eb6-0bdd-4696-8ab9-85b169027252,.\38 800d846-6eac-463b-a171-f98d52905354{fill:#fff;}.\38 800d846-6eac-463b-a171-f98d52905354{opacity:0.35;}</style></defs><title>app-ic_netact_cp_si_56dp</title><rect class="c57e5a60-aeca-4650-83c1-1f29943ea724" width="56" height="56" rx="12" ry="12"/><path class="8800d846-6eac-463b-a171-f98d52905354" d="M49.39,26.92a4.5,4.5,0,0,0-5.2-2.06L41,19.38a9,9,0,0,1-1.64,1.38l3,5.15a4.52,4.52,0,1,0,7,1Zm-1.58,2.89a2.34,2.34,0,0,1-1.12,1.47,2.42,2.42,0,0,1-3.56-2.72,2.44,2.44,0,0,1,2.34-1.8,2.72,2.72,0,0,1,.63.08,2.42,2.42,0,0,1,1.71,3ZM35.55,31.08V22.15a8.74,8.74,0,0,1-1,.07,9.48,9.48,0,0,1-1.08-.07v8.93a4.53,4.53,0,1,0,2.1,0Zm-1,6.82a2.43,2.43,0,1,1,2.42-2.43A2.42,2.42,0,0,1,34.5,37.9Zm0-17.29a7.31,7.31,0,1,0-7.31-7.3A7.31,7.31,0,0,0,34.53,20.61Zm0-12.48a5.18,5.18,0,1,1-5.18,5.18A5.19,5.19,0,0,1,34.53,8.13ZM29.62,20.74l-3,5.17a4.5,4.5,0,0,1-1.47,7.49,2.48,2.48,0,0,0-1-1.87,2.44,2.44,0,0,0,1.48-1.13,2.42,2.42,0,0,0-.89-3.31,2.37,2.37,0,0,0-1.21-.33,2.72,2.72,0,0,0-.63.08A2.39,2.39,0,0,0,21.43,28a2.42,2.42,0,0,0-.25,1.84A2.46,2.46,0,0,0,22,31H19.57l-.16,0a4.51,4.51,0,0,1,5.4-6.19L28,19.35A9.43,9.43,0,0,0,29.62,20.74Z"/><path class="3bb64eb6-0bdd-4696-8ab9-85b169027252" d="M10.88,42.14a8.15,8.15,0,0,1-1.4-.59,4.91,4.91,0,0,1-1.18-.88,4,4,0,0,1-.84-1.21,3.7,3.7,0,0,1-.32-1.55,4.44,4.44,0,0,1,1.4-3.46,5.65,5.65,0,0,1,4-1.27,10.44,10.44,0,0,1,2.74.35,7.38,7.38,0,0,1,2,.84l-1,2.33a9.35,9.35,0,0,0-1.34-.56,6.54,6.54,0,0,0-2.15-.32,4.59,4.59,0,0,0-.93.09,2.44,2.44,0,0,0-.78.3,1.5,1.5,0,0,0-.54.55,1.61,1.61,0,0,0-.2.82,1.92,1.92,0,0,0,.09.59,1.45,1.45,0,0,0,.33.53,2.46,2.46,0,0,0,.65.49,7,7,0,0,0,1.07.42l1.54.44a8.65,8.65,0,0,1,1.68.64,4.58,4.58,0,0,1,1.24.93,3.71,3.71,0,0,1,.78,1.26,4.62,4.62,0,0,1,.28,1.68,4.4,4.4,0,0,1-1.45,3.56,6.2,6.2,0,0,1-4.12,1.23,10,10,0,0,1-1.89-.16,12.06,12.06,0,0,1-1.53-.4,8.77,8.77,0,0,1-1.15-.47c-.33-.16-.57-.3-.75-.4l1.21-2.44c.18.1.4.22.68.35a9.88,9.88,0,0,0,.95.38A10.14,10.14,0,0,0,11,46.5a7.07,7.07,0,0,0,1.33.12,4.81,4.81,0,0,0,.83-.07,2.18,2.18,0,0,0,.78-.3,1.94,1.94,0,0,0,.57-.57,1.71,1.71,0,0,0,.22-.93,1.88,1.88,0,0,0-.09-.57,1.49,1.49,0,0,0-.32-.55,2.61,2.61,0,0,0-.63-.5,4.55,4.55,0,0,0-1-.44ZM23.11,49H20V33.53h3.1Z"/></svg>