<svg id="48cf0d87-ecd4-4c10-9c62-0c33427ad1e0" data-name="SVG" xmlns="http://www.w3.org/2000/svg" width="56" height="56" viewBox="0 0 56 56"><defs><style>.e93b1861-7d3a-477c-a405-40bdf1092560{fill:#06bfa9;}.effe251d-3deb-4214-a59a-f0ff59e40c47,.f77f54e6-303a-4d63-a3a8-84f149405630{fill:#fff;}.effe251d-3deb-4214-a59a-f0ff59e40c47{opacity:0.35;}</style></defs><title>app-ic_netact_ad_pp_56dp</title><rect class="e93b1861-7d3a-477c-a405-40bdf1092560" width="56" height="56" rx="12" ry="12"/><path class="effe251d-3deb-4214-a59a-f0ff59e40c47" d="M39,22.05a5.19,5.19,0,1,0-5.19,5.19A5.2,5.2,0,0,0,39,22.05Zm-8.38,0a3.19,3.19,0,1,1,3.19,3.19A3.19,3.19,0,0,1,30.6,22.05Zm15.55,1.78L50,26.05l-4.65,8L41.5,31.86a12.42,12.42,0,0,1-3.07,1.78v4.44H32.35a8.32,8.32,0,0,0-.35-2h4.43V32.22l.69-.23a10.47,10.47,0,0,0,3.61-2.09l.54-.48,3.35,1.94,2.65-4.58-3.34-1.93.14-.7a10.56,10.56,0,0,0,0-4.19l-.14-.71,3.34-1.93-2.65-4.57-3.35,1.93-.54-.48a10.47,10.47,0,0,0-3.61-2.09l-.69-.23V8H31.15v3.86l-.69.23a10.47,10.47,0,0,0-3.61,2.09l-.54.48L23,12.75l-2.65,4.57,3.35,1.93-.15.71a10.51,10.51,0,0,0,0,4.18l.15.71-3.35,1.93L22.77,31H20.46l-2.88-5,3.85-2.22a11.85,11.85,0,0,1-.13-1.78,11.62,11.62,0,0,1,.13-1.77l-3.85-2.23,4.64-8,3.86,2.23a12.55,12.55,0,0,1,3.07-1.78V6h9.28v4.44a12.74,12.74,0,0,1,3.07,1.78L45.35,10l4.65,8-3.85,2.23a11.62,11.62,0,0,1,.13,1.77A11.85,11.85,0,0,1,46.15,23.83Z"/><path class="f77f54e6-303a-4d63-a3a8-84f149405630" d="M17.74,38.57a6,6,0,0,1-.28,1.81,4.12,4.12,0,0,1-1,1.61,4.9,4.9,0,0,1-1.83,1.17,7.74,7.74,0,0,1-2.83.45H10.07V49H7V33.53h5a7.21,7.21,0,0,1,2.73.45,4.88,4.88,0,0,1,1.76,1.17,4.31,4.31,0,0,1,.95,1.62A5.93,5.93,0,0,1,17.74,38.57Zm-3,0a2.81,2.81,0,0,0-.22-1.15,2,2,0,0,0-.6-.76,2.29,2.29,0,0,0-.86-.41,4.22,4.22,0,0,0-1-.12H10.07V41h1.71a5.27,5.27,0,0,0,1.15-.12,2.48,2.48,0,0,0,.92-.4,2.15,2.15,0,0,0,.62-.75A2.84,2.84,0,0,0,14.69,38.57Zm15.64,0A6.05,6.05,0,0,1,30,40.38a4,4,0,0,1-1,1.61,4.94,4.94,0,0,1-1.82,1.17,7.79,7.79,0,0,1-2.84.45H22.65V49H19.59V33.53h5a7.29,7.29,0,0,1,2.73.45,5,5,0,0,1,1.76,1.17A4.28,4.28,0,0,1,30,36.77,5.94,5.94,0,0,1,30.33,38.57Zm-3.06,0a2.65,2.65,0,0,0-.22-1.15,2,2,0,0,0-.59-.76,2.36,2.36,0,0,0-.86-.41,4.3,4.3,0,0,0-1-.12H22.65V41h1.72a5.11,5.11,0,0,0,1.14-.12,2.48,2.48,0,0,0,.92-.4,2,2,0,0,0,.62-.75A2.69,2.69,0,0,0,27.27,38.57Z"/></svg>