<svg id="34551717-0609-47ee-8049-7e34496b4c00" data-name="SVG" xmlns="http://www.w3.org/2000/svg" width="56" height="56" viewBox="0 0 56 56"><defs><style>.\31 0b42ca8-1d13-4806-975c-32987e8487ef{fill:#ffbc00;}.\31 0543769-d539-4ad7-a1f7-1e838cef409e,.\35 8a9b6bc-cffc-4dbe-a363-6450e3ae464a{fill:#fff;}.\35 8a9b6bc-cffc-4dbe-a363-6450e3ae464a{opacity:0.35;}</style></defs><title>app-ic_netact_mo_tr_56dp</title><rect class="10b42ca8-1d13-4806-975c-32987e8487ef" width="56" height="56" rx="12" ry="12"/><path class="58a9b6bc-cffc-4dbe-a363-6450e3ae464a" d="M30.74,16.92l-2.13,5.32a1,1,0,0,1-.93.63H23.19v-2H27l3-7.52a1,1,0,0,1,1.9.12l2.51,9.72,2.13-5.32a1,1,0,0,1,.85-.62,1,1,0,0,1,.93.48l1.89,3.14h6v2H39.67a1,1,0,0,1-.86-.49l-1.14-1.9-2.52,6.29a1,1,0,0,1-.93.62h-.07a1,1,0,0,1-.9-.75ZM46,6H22.31a4,4,0,0,0-4,4V30.11a4,4,0,0,0,.11.86h2.1a2.06,2.06,0,0,1-.21-.86V10a2,2,0,0,1,2-2H46a2,2,0,0,1,2,2V30.11a2,2,0,0,1-2,2H30.27A7,7,0,0,1,32,33.44a8,8,0,0,1,.52.67H46a4,4,0,0,0,4-4V10A4,4,0,0,0,46,6Z"/><path class="10543769-d539-4ad7-a1f7-1e838cef409e" d="M11.49,36.33H7v-2.8H19v2.8H14.59V49h-3.1Zm20.17,1.82a4.42,4.42,0,0,1-.81,2.73,4.55,4.55,0,0,1-2.25,1.56L32.67,49h-3.6l-3.42-5.76h-1.8V49H20.79V33.53h5.33a7.22,7.22,0,0,1,2.75.45,4.78,4.78,0,0,1,1.69,1.14,3.82,3.82,0,0,1,.86,1.49A5.51,5.51,0,0,1,31.66,38.15Zm-3.06.22a1.91,1.91,0,0,0-.78-1.77,4.57,4.57,0,0,0-2.3-.47H23.85v4.51h1.54a4.37,4.37,0,0,0,2.41-.54A1.94,1.94,0,0,0,28.6,38.37Z"/></svg>