<svg id="f3e01d41-978a-43f4-bc23-08d9634abc60" data-name="SVG" xmlns="http://www.w3.org/2000/svg" width="56" height="56" viewBox="0 0 56 56"><defs><style>.b1f1463e-6e2e-4049-9577-06a1e824252e{fill:#42a5f5;}.\37 2cf56a1-6e4b-4f21-8d37-547413bf90d0,.\38 8e6ac5b-ee1c-4d92-8338-1df5cbe0ce4c{fill:#fff;}.\37 2cf56a1-6e4b-4f21-8d37-547413bf90d0{opacity:0.35;}</style></defs><title>app-ic_netact_cp_sw_56dp</title><rect class="b1f1463e-6e2e-4049-9577-06a1e824252e" width="56" height="56" rx="12" ry="12"/><path class="72cf56a1-6e4b-4f21-8d37-547413bf90d0" d="M49.39,26.92a4.5,4.5,0,0,0-5.2-2.06L41,19.38a9,9,0,0,1-1.64,1.38l3,5.15a4.52,4.52,0,1,0,7,1Zm-1.58,2.89a2.34,2.34,0,0,1-1.12,1.47,2.42,2.42,0,0,1-3.56-2.72,2.44,2.44,0,0,1,2.34-1.8,2.72,2.72,0,0,1,.63.08,2.42,2.42,0,0,1,1.71,3Zm-13.28-9.2a7.31,7.31,0,1,0-7.31-7.3A7.31,7.31,0,0,0,34.53,20.61Zm0-12.48a5.18,5.18,0,1,1-5.18,5.18A5.19,5.19,0,0,1,34.53,8.13Zm0,14.09a8.74,8.74,0,0,0,1-.07V31h-2l-.14,0v-8.9A9.48,9.48,0,0,0,34.53,22.22Zm-4.91-1.48-3,5.17a4.51,4.51,0,0,1,.85,5.47H24.53a2.39,2.39,0,0,0,1.34-2.82,2.39,2.39,0,0,0-1.13-1.47,2.37,2.37,0,0,0-1.21-.33,2.72,2.72,0,0,0-.63.08A2.39,2.39,0,0,0,21.43,28a2.42,2.42,0,0,0-.25,1.84,2.51,2.51,0,0,0,.88,1.3,1.93,1.93,0,0,0-.48-.08H19.41a4.5,4.5,0,0,1,5.4-6.17L28,19.35A9.43,9.43,0,0,0,29.62,20.74Z"/><path class="88e6ac5b-ee1c-4d92-8338-1df5cbe0ce4c" d="M10.91,42.14a7.83,7.83,0,0,1-1.4-.59,5,5,0,0,1-1.19-.88,4.13,4.13,0,0,1-.83-1.21,3.55,3.55,0,0,1-.32-1.55,4.43,4.43,0,0,1,1.39-3.46,5.67,5.67,0,0,1,3.95-1.27,10.33,10.33,0,0,1,2.74.35,7.11,7.11,0,0,1,2,.84l-1,2.33a9.35,9.35,0,0,0-1.34-.56,6.56,6.56,0,0,0-2.16-.32,4.56,4.56,0,0,0-.92.09,2.27,2.27,0,0,0-.78.3,1.5,1.5,0,0,0-.54.55,1.61,1.61,0,0,0-.2.82,1.92,1.92,0,0,0,.09.59,1.45,1.45,0,0,0,.33.53,2.46,2.46,0,0,0,.65.49,6.86,6.86,0,0,0,1.06.42l1.54.44a9,9,0,0,1,1.69.64,4.74,4.74,0,0,1,1.24.93,3.71,3.71,0,0,1,.78,1.26,4.85,4.85,0,0,1,.28,1.68,4.41,4.41,0,0,1-1.46,3.56,6.17,6.17,0,0,1-4.11,1.23,10,10,0,0,1-1.89-.16,12.06,12.06,0,0,1-1.53-.4,9.58,9.58,0,0,1-1.16-.47c-.32-.16-.57-.3-.74-.4l1.21-2.44c.17.1.4.22.68.35a9.64,9.64,0,0,0,.94.38A10.91,10.91,0,0,0,11,46.5a7.07,7.07,0,0,0,1.33.12,4.7,4.7,0,0,0,.82-.07,2.16,2.16,0,0,0,.79-.3,1.94,1.94,0,0,0,.57-.57,1.8,1.8,0,0,0,.22-.93,1.88,1.88,0,0,0-.09-.57,1.64,1.64,0,0,0-.32-.55,2.69,2.69,0,0,0-.64-.5,4.45,4.45,0,0,0-1-.44ZM25.63,49H22.24L18.89,33.53H22l2,11.11,2.33-10.75h3.35L32,44.64,34,33.53h3.08L33.74,49H30.36L28,38.4Z"/></svg>