<svg id="1e7ed99b-38f5-42c4-bcd1-d9c81f0da38e" data-name="SVG" xmlns="http://www.w3.org/2000/svg" width="56" height="56" viewBox="0 0 56 56"><defs><style>.\35 83b2df5-26f0-45e0-92e9-60410e547763{fill:#d32f2f;}.dde606f0-396a-42a0-9bcd-16f60b9e1cdc,.efeaa1f9-d187-4f9a-bb47-d670ecfe73c1{fill:#fff;}.dde606f0-396a-42a0-9bcd-16f60b9e1cdc{opacity:0.35;}</style></defs><title>app-ic_netact_ra_pm_56dp</title><rect class="583b2df5-26f0-45e0-92e9-60410e547763" width="56" height="56" rx="12" ry="12"/><path class="dde606f0-396a-42a0-9bcd-16f60b9e1cdc" d="M32.23,18.17a2.85,2.85,0,0,0,4.24-2.53c0-.08,0-.16,0-.25l4-1.6a2.87,2.87,0,1,0-.74-1.91.43.43,0,0,0,0,0l-4.12,1.65a2.87,2.87,0,0,0-4.68,3.09l-3.44,3A2.88,2.88,0,1,0,29,22.13a2.83,2.83,0,0,0-.18-1ZM42.58,11a.88.88,0,1,1-.88.88A.88.88,0,0,1,42.58,11Zm-9,3.76a.89.89,0,1,1-.88.88A.88.88,0,0,1,33.59,14.76ZM26.07,23a.89.89,0,1,1,.88-.89A.89.89,0,0,1,26.07,23ZM39.21,28.1a2.09,2.09,0,0,0,0,.35,2.91,2.91,0,1,0,1-2.13l-3.72-2.24A2.89,2.89,0,1,0,36,26.2Zm2.84-.53a.88.88,0,1,1-.88.88A.88.88,0,0,1,42.05,27.57Zm-8.46-2a.88.88,0,1,1,.88-.88A.88.88,0,0,1,33.59,25.57ZM50,34v2H36.11V34ZM17.55,6h2V31h-2Z"/><path class="efeaa1f9-d187-4f9a-bb47-d670ecfe73c1" d="M17.77,38.57a6,6,0,0,1-.29,1.81,4,4,0,0,1-1,1.61,4.94,4.94,0,0,1-1.82,1.17,7.83,7.83,0,0,1-2.84.45H10.09V49H7V33.53h5a7,7,0,0,1,2.72.46,4.74,4.74,0,0,1,1.76,1.16,4.31,4.31,0,0,1,.95,1.62A5.94,5.94,0,0,1,17.77,38.57Zm-3.06,0a2.81,2.81,0,0,0-.22-1.15,2,2,0,0,0-.6-.76,2.32,2.32,0,0,0-.85-.41,4.36,4.36,0,0,0-1-.12H10.09V41H11.8A5.2,5.2,0,0,0,13,40.89a2.48,2.48,0,0,0,.92-.4,1.9,1.9,0,0,0,.62-.75A2.84,2.84,0,0,0,14.71,38.57Zm19.34-5V49h-2.8V38.59l-3.36,6.65H25.6l-3.19-6.38V49h-2.8V33.53h3.22l4,8.32,4-8.32Z"/></svg>