<svg id="83d6d199-525f-4d5b-ac3a-4a75ba976265" data-name="SVG" xmlns="http://www.w3.org/2000/svg" width="56" height="56" viewBox="0 0 56 56"><defs><style>.a006bd90-4723-4335-942f-deb14ec6aef2{fill:#42a5f5;}.\34 c865ef7-518b-49fc-91c7-c5da7e6d49da,.ae3fa17f-7a7b-4caf-bce8-4f8a1e0ee7d1{fill:#fff;}.\34 c865ef7-518b-49fc-91c7-c5da7e6d49da{opacity:0.35;}</style></defs><title>app-ic_netact_cp_op_56dp</title><rect class="a006bd90-4723-4335-942f-deb14ec6aef2" width="56" height="56" rx="12" ry="12"/><path class="4c865ef7-518b-49fc-91c7-c5da7e6d49da" d="M49.39,26.92a4.5,4.5,0,0,0-5.2-2.06L41,19.38a9,9,0,0,1-1.64,1.38l3,5.15a4.52,4.52,0,1,0,7,1Zm-1.58,2.89a2.34,2.34,0,0,1-1.12,1.47,2.42,2.42,0,0,1-3.56-2.72,2.44,2.44,0,0,1,2.34-1.8,2.72,2.72,0,0,1,.63.08,2.42,2.42,0,0,1,1.71,3Zm-13.28-9.2a7.31,7.31,0,1,0-7.31-7.3A7.31,7.31,0,0,0,34.53,20.61Zm0-12.48a5.18,5.18,0,1,1-5.18,5.18A5.19,5.19,0,0,1,34.53,8.13ZM39,35.47a4.53,4.53,0,0,1-2.92,4.22,8.45,8.45,0,0,0,.09-1.12,8,8,0,0,0-.1-1.29,2.42,2.42,0,0,0-1.6-4.23,2.51,2.51,0,0,0-.55.07,7.34,7.34,0,0,0-2-1.33,4.61,4.61,0,0,1,1.54-.71V22.15a9.48,9.48,0,0,0,1.08.07,8.74,8.74,0,0,0,1-.07v8.93A4.53,4.53,0,0,1,39,35.47ZM29.62,20.74l-3,5.17a4.49,4.49,0,0,1,1,5.12H25.08a2.41,2.41,0,0,0-.34-3.94,2.37,2.37,0,0,0-1.21-.33,2.72,2.72,0,0,0-.63.08A2.39,2.39,0,0,0,21.43,28a2.36,2.36,0,0,0,.61,3.1h-2.6a4.49,4.49,0,0,1,5.37-6.21L28,19.35A9.43,9.43,0,0,0,29.62,20.74Z"/><path class="ae3fa17f-7a7b-4caf-bce8-4f8a1e0ee7d1" d="M7.06,41.26A11.89,11.89,0,0,1,7.48,38a7.12,7.12,0,0,1,1.28-2.55A6,6,0,0,1,11,33.79a7.38,7.38,0,0,1,3.13-.61,7.38,7.38,0,0,1,3.13.61,5.93,5.93,0,0,1,2.2,1.67A7,7,0,0,1,20.7,38a12.75,12.75,0,0,1,0,6.49,7,7,0,0,1-1.29,2.56,6,6,0,0,1-2.2,1.69,7.53,7.53,0,0,1-3.13.6,7.53,7.53,0,0,1-3.13-.6,6,6,0,0,1-2.19-1.69A7.17,7.17,0,0,1,7.48,44.5,11.87,11.87,0,0,1,7.06,41.26Zm3.21,0a6.88,6.88,0,0,0,.94,3.87,3.2,3.2,0,0,0,2.87,1.41A3.2,3.2,0,0,0,17,45.13a7,7,0,0,0,.93-3.87A6.89,6.89,0,0,0,17,37.4,3.19,3.19,0,0,0,14.08,36a3.19,3.19,0,0,0-2.87,1.4A6.8,6.8,0,0,0,10.27,41.26Zm23.87-2.69a6,6,0,0,1-.28,1.81,4.24,4.24,0,0,1-1,1.61,5.06,5.06,0,0,1-1.83,1.17,7.79,7.79,0,0,1-2.84.45H26.46V49H23.41V33.53h5a7.21,7.21,0,0,1,2.73.45,5,5,0,0,1,1.76,1.17,4.44,4.44,0,0,1,1,1.62A5.93,5.93,0,0,1,34.14,38.57Zm-3.06,0a2.65,2.65,0,0,0-.22-1.15,1.88,1.88,0,0,0-.59-.76,2.36,2.36,0,0,0-.86-.41,4.28,4.28,0,0,0-1-.12H26.46V41h1.72a5.11,5.11,0,0,0,1.14-.12,2.52,2.52,0,0,0,.93-.4,1.88,1.88,0,0,0,.61-.75A2.69,2.69,0,0,0,31.08,38.57Z"/></svg>