<svg id="7a254cad-726a-4f30-a273-3ea3fada91bc" data-name="SVG" xmlns="http://www.w3.org/2000/svg" width="56" height="56" viewBox="0 0 56 56"><defs><style>.\34 ed2546f-adf3-4d92-a2a0-1af93e2dda8a{fill:#0e874f;}.\37 89d9246-2ec0-4503-bfee-8edaa8d98e79,.b23e275c-cf04-4b92-8605-6266be034e7c{fill:#fff;}.\37 89d9246-2ec0-4503-bfee-8edaa8d98e79{opacity:0.35;}</style></defs><title>app-ic_netact_ua_ob_56dp</title><rect class="4ed2546f-adf3-4d92-a2a0-1af93e2dda8a" width="56" height="56" rx="12" ry="12"/><path class="789d9246-2ec0-4503-bfee-8edaa8d98e79" d="M35.46,30.52a1.58,1.58,0,0,1-2.25,0,1.83,1.83,0,0,1,0-2.4,1.6,1.6,0,0,1,2.24,0,1.66,1.66,0,0,1,.46,1.22A1.64,1.64,0,0,1,35.46,30.52ZM37,15.12a2.9,2.9,0,0,1,.76,2.12,3.05,3.05,0,0,1-.16,1,4.73,4.73,0,0,1-.44.87,4.43,4.43,0,0,1-.57.71l-.59.57a16.42,16.42,0,0,0-1.25,1.21,6.23,6.23,0,0,0-.88,1.18,5,5,0,0,0-.51,1.36,8.63,8.63,0,0,0-.15,1.71v.36h2.12v-.36a5.26,5.26,0,0,1,.16-1.35,4.31,4.31,0,0,1,.43-1,4.72,4.72,0,0,1,.67-.82c.27-.27.58-.55.92-.84s.58-.53.86-.82a6.35,6.35,0,0,0,.81-1,5.7,5.7,0,0,0,.58-1.27A5.24,5.24,0,0,0,40,17.12a5.41,5.41,0,0,0-.32-1.85,4.45,4.45,0,0,0-1-1.57h0A4.79,4.79,0,0,0,37,12.64a6.33,6.33,0,0,0-2.28-.38,7.66,7.66,0,0,0-2,.26,7,7,0,0,0-1.62.67,7.87,7.87,0,0,0-1.22.9A8.45,8.45,0,0,0,29,15l-.21.24,1.41,1.45.25-.31a6.11,6.11,0,0,1,1.72-1.44,4.71,4.71,0,0,1,2.4-.58A3.27,3.27,0,0,1,37,15.12ZM34.38,6A15.61,15.61,0,0,0,22,31.2,2.34,2.34,0,0,1,23,31h1.58a13.62,13.62,0,1,1,10.71,4.19,1.12,1.12,0,0,0,0,.13,6.59,6.59,0,0,1,.32,1.85A15.62,15.62,0,0,0,34.38,6Z"/><path class="b23e275c-cf04-4b92-8605-6266be034e7c" d="M7.05,41.24A11.87,11.87,0,0,1,7.47,38a7.09,7.09,0,0,1,1.28-2.56,6,6,0,0,1,2.19-1.67,7.5,7.5,0,0,1,3.13-.6,7.57,7.57,0,0,1,3.13.6,5.93,5.93,0,0,1,2.2,1.67A7.1,7.1,0,0,1,20.69,38a12.75,12.75,0,0,1,0,6.49,7.1,7.1,0,0,1-1.29,2.56,5.85,5.85,0,0,1-2.2,1.68,7.56,7.56,0,0,1-3.13.61,7.5,7.5,0,0,1-3.13-.61,5.9,5.9,0,0,1-2.19-1.68,7.09,7.09,0,0,1-1.28-2.56A12,12,0,0,1,7.05,41.24Zm3.21,0a6.88,6.88,0,0,0,.94,3.87,3.2,3.2,0,0,0,2.87,1.41,3.21,3.21,0,0,0,2.87-1.41,7,7,0,0,0,.93-3.87,6.91,6.91,0,0,0-.93-3.86A3.23,3.23,0,0,0,14.07,36a3.22,3.22,0,0,0-2.87,1.4A6.82,6.82,0,0,0,10.26,41.24Zm18.46-7.72a6.54,6.54,0,0,1,2.34.36,4.19,4.19,0,0,1,1.5.94,3.26,3.26,0,0,1,.79,1.28,4.71,4.71,0,0,1,.23,1.4,3.93,3.93,0,0,1-.21,1.36,3.09,3.09,0,0,1-.55,1,2.52,2.52,0,0,1-.76.64,2.84,2.84,0,0,1-.83.32,4.22,4.22,0,0,1,1.06.29,2.85,2.85,0,0,1,1,.68A4,4,0,0,1,34.09,43a4.48,4.48,0,0,1,.3,1.74,4.26,4.26,0,0,1-.34,1.72,3.47,3.47,0,0,1-1,1.36,4.82,4.82,0,0,1-1.7.9,8.2,8.2,0,0,1-2.39.31H23.39V33.52Zm-.33,6.2a2.88,2.88,0,0,0,1.52-.38,1.54,1.54,0,0,0,.61-1.42,1.57,1.57,0,0,0-.59-1.41,2.53,2.53,0,0,0-1.41-.4H26.39v3.61Zm.53,6.67a2.46,2.46,0,0,0,1.86-.58,2.1,2.1,0,0,0,.51-1.42,1.9,1.9,0,0,0-.66-1.61,3,3,0,0,0-1.89-.51H26.39v4.12Z"/></svg>