<svg id="042880e7-cc18-41cf-a4ec-ddf463474bd1" data-name="SVG" xmlns="http://www.w3.org/2000/svg" width="56" height="56" viewBox="0 0 56 56"><defs><style>.\39 8bc9a1e-17c2-4bcd-938e-e2b1e3e4f3f1{fill:#ffbc00;}.\37 6d296d8-0710-4d02-a6c3-aa927c33691a,.\39 6562e26-e66b-456e-a8aa-cf2f6c15e4fd{fill:#fff;}.\39 6562e26-e66b-456e-a8aa-cf2f6c15e4fd{opacity:0.35;}</style></defs><title>app-ic_netact_mo_mo_56dp</title><rect class="98bc9a1e-17c2-4bcd-938e-e2b1e3e4f3f1" width="56" height="56" rx="12" ry="12"/><path class="96562e26-e66b-456e-a8aa-cf2f6c15e4fd" d="M37.67,20.48l-2.52,6.29a1,1,0,0,1-.93.62h-.07a1,1,0,0,1-.9-.75l-2.51-9.72-2.13,5.32a1,1,0,0,1-.93.63H23.19v-2H27l3-7.52a1,1,0,0,1,1.9.12l2.51,9.72,2.13-5.32a1,1,0,0,1,.85-.62,1,1,0,0,1,.93.48l1.89,3.14h6v2H39.66a1,1,0,0,1-.85-.49ZM46,6H22.31a4,4,0,0,0-4,4V30.11a3.93,3.93,0,0,0,.12.92h2.12a1.88,1.88,0,0,1-.24-.92V10a2,2,0,0,1,2-2H46a2,2,0,0,1,2,2V30.11a2,2,0,0,1-2,2H35.59a8.33,8.33,0,0,1,2,1.77c.06.07.11.16.17.23H46a4,4,0,0,0,4-4V10A4,4,0,0,0,46,6Z"/><path class="76d296d8-0710-4d02-a6c3-aa927c33691a" d="M21.46,33.53V49H18.67V38.59L15.3,45.24H13L9.82,38.86V49H7V33.53h3.21l4,8.32,4-8.32Zm2.29,7.73A11.89,11.89,0,0,1,24.17,38a7,7,0,0,1,1.29-2.55,5.86,5.86,0,0,1,2.18-1.67,7.38,7.38,0,0,1,3.13-.61,7.38,7.38,0,0,1,3.13.61,5.93,5.93,0,0,1,2.2,1.67A7,7,0,0,1,37.39,38a12.75,12.75,0,0,1,0,6.49,7,7,0,0,1-1.29,2.56,6,6,0,0,1-2.2,1.69,7.53,7.53,0,0,1-3.13.6,7.53,7.53,0,0,1-3.13-.6,5.91,5.91,0,0,1-2.18-1.69,7,7,0,0,1-1.29-2.56A11.87,11.87,0,0,1,23.75,41.26Zm3.21,0a6.88,6.88,0,0,0,.94,3.87,3.2,3.2,0,0,0,2.87,1.41,3.2,3.2,0,0,0,2.87-1.41,7,7,0,0,0,.93-3.87,6.89,6.89,0,0,0-.93-3.86A3.19,3.19,0,0,0,30.77,36a3.19,3.19,0,0,0-2.87,1.4A6.8,6.8,0,0,0,27,41.26Z"/></svg>